<svg width="385" height="435" viewBox="0 0 385 435" fill="none" xmlns="http://www.w3.org/2000/svg">
<path fill-rule="evenodd" clip-rule="evenodd" d="M162.926 1.39846C162.926 2.97746 154.08 11.0205 153.046 10.3815C152.59 10.0995 151.139 11.0925 149.821 12.5885L147.426 15.3075L149.974 13.3075C151.959 11.7495 151.883 11.9305 149.629 14.1285C147.998 15.7185 146.101 16.7045 145.279 16.3895C144.348 16.0325 144.08 16.2485 144.538 16.9885C145.021 17.7695 144.695 17.9325 143.538 17.4885C142.382 17.0455 142.056 17.2085 142.538 17.9885C143.021 18.7695 142.695 18.9325 141.538 18.4885C140.519 18.0975 140.07 18.2315 140.433 18.8185C140.961 19.6735 139.793 20.1955 137.836 19.9795C137.511 19.9435 135.11 22.0825 132.5 24.7325C128.874 28.4135 127.86 30.1125 128.203 31.9295C128.65 34.2905 128.655 34.2885 128.79 31.7655C128.877 30.1335 130.625 27.6295 133.676 24.7655L138.426 20.3075L134.176 24.8455C130.73 28.5255 129.926 30.0965 129.926 33.1545C129.926 35.5105 129.536 36.6845 128.886 36.2825C128.205 35.8615 128.083 36.5835 128.532 38.3725C128.998 40.2285 128.869 40.8905 128.131 40.4345C127.395 39.9795 127.19 40.9805 127.494 43.5355C127.742 45.6095 127.664 46.7045 127.322 45.9685C126.873 45.0025 126.382 45.2655 125.561 46.9135C124.934 48.1695 122.878 50.0995 120.992 51.2005C118.565 52.6185 117.788 52.7805 118.331 51.7555C118.754 50.9595 118.255 51.3415 117.222 52.6065C115.898 54.2265 114.791 54.6925 113.471 54.1865C112.097 53.6595 111.808 53.8085 112.387 54.7445C112.964 55.6775 112.642 55.8515 111.192 55.3925C109.907 54.9845 108.718 55.3865 107.817 56.5345C106.6 58.0865 106.619 58.1825 107.973 57.3075C108.824 56.7575 108.487 57.2245 107.223 58.3455C104.863 60.4385 104.099 63.8075 105.985 63.8075C106.567 63.8075 106.766 64.2575 106.426 64.8075C106.086 65.3575 106.27 65.8075 106.836 65.8075C107.401 65.8075 107.576 66.5565 107.225 67.4715C106.824 68.5155 106.983 68.8905 107.651 68.4775C109.507 67.3305 109.969 70.8115 108.3 73.3595C106.73 75.7555 105.114 76.9305 106.521 74.6525C106.977 73.9155 106.794 73.7705 106.014 74.2535C105.342 74.6685 105.032 75.2465 105.324 75.5395C105.617 75.8315 105.39 76.9405 104.821 78.0035C104.003 79.5325 103.123 79.8055 100.606 79.3115C98.0876 78.8165 97.7376 78.9255 98.9256 79.8335C100.178 80.7915 100.08 80.9065 98.3326 80.5285C97.0016 80.2415 95.8056 80.7705 95.0506 81.9785C94.3976 83.0245 93.0996 83.7515 92.1666 83.5945C91.2186 83.4335 90.4406 83.9685 90.4026 84.8075C90.3656 85.6325 89.8086 86.2005 89.1666 86.0695C88.4606 85.9255 88.2486 86.4865 88.6316 87.4835C89.0906 88.6805 88.9006 88.9105 87.9406 88.3175C87.0426 87.7615 86.8546 87.8835 87.3576 88.6965C88.3866 90.3615 85.1076 95.0915 83.3836 94.4295C82.6166 94.1355 81.6806 94.3945 81.3036 95.0055C80.8556 95.7295 81.0786 95.8315 81.9406 95.2975C82.8846 94.7145 83.0936 94.9275 82.6676 96.0375C81.9776 97.8365 86.1236 102.234 87.4096 101.066C87.8686 100.649 87.9676 101.08 87.6286 102.025C87.2896 102.97 87.5126 104.052 88.1236 104.429C88.7966 104.845 88.9536 104.661 88.5206 103.962C87.0516 101.584 88.7656 102.913 90.4146 105.43C91.5906 107.225 91.7056 107.833 90.7796 107.356C90.0346 106.972 90.1396 107.255 91.0136 107.983C92.5746 109.285 92.5196 112.292 90.9526 111.324C90.5126 111.051 90.2136 111.611 90.2886 112.568C90.3746 113.655 89.7696 114.255 88.6756 114.168C87.7126 114.092 86.9256 114.317 86.9256 114.668C86.9256 115.483 81.6086 115.347 80.2326 114.497C79.6616 114.144 79.3646 112.606 79.5736 111.081C79.8946 108.733 79.8116 108.614 79.0286 110.307C78.3406 111.792 78.1076 110.792 78.1196 106.418C78.1296 102.855 78.4656 101.062 78.9696 101.878C79.5166 102.763 79.7726 102.133 79.7136 100.052C79.6636 98.3055 79.2416 97.1125 78.7746 97.4005C78.3076 97.6895 77.9256 97.2235 77.9256 96.3665C77.9256 95.5095 77.1386 94.8005 76.1756 94.7925C74.6796 94.7795 74.6436 94.6355 75.9256 93.8075C76.9906 93.1185 76.1256 92.9195 72.9486 93.1215L68.4716 93.4055L68.7596 97.3965C69.2196 103.765 66.8306 105.24 57.2266 104.513C52.3446 104.144 50.0426 104.269 50.9656 104.853C52.2366 105.657 52.2316 105.794 50.9256 105.91C50.1006 105.984 49.2006 106.028 48.9256 106.009C48.6506 105.989 48.4256 107.693 48.4256 109.795C48.4256 111.896 48.7636 113.407 49.1756 113.152C49.8586 112.731 50.3216 114.24 50.0556 116.021C49.9976 116.414 50.6926 116.45 51.6016 116.101C52.7356 115.666 53.0186 115.847 52.5056 116.677C51.9566 117.566 52.4836 117.705 54.4906 117.201C56.2986 116.747 57.0036 116.872 56.5736 117.568C56.1606 118.236 56.7116 118.414 58.0806 118.056C59.6516 117.645 60.0256 117.836 59.4566 118.757C58.8896 119.675 59.2186 119.849 60.6596 119.391C63.5576 118.472 65.6236 119.582 67.9176 123.293C69.8336 126.394 69.7676 130.446 67.8206 129.242C67.3286 128.938 66.9256 129.103 66.9256 129.609C66.9256 130.116 65.6886 130.332 64.1756 130.09C62.0256 129.746 61.7536 129.883 62.9256 130.713C64.1096 131.553 63.7296 131.78 61.1166 131.792C59.2966 131.8 58.0566 131.404 58.3606 130.912C58.6656 130.419 58.2446 129.76 57.4256 129.445C56.5906 129.125 56.0446 127.872 56.1816 126.591C56.3956 124.587 55.9956 124.318 52.9256 124.393L49.4256 124.479V129.872C49.4256 133.986 49.0516 135.338 47.8466 135.576C46.5716 135.828 46.3546 136.932 46.7176 141.315C47.1196 146.162 46.8956 146.985 44.6266 149.006L42.0846 151.27L46.3206 155.799L50.5566 160.327L50.4916 171.067C50.4266 181.637 50.4616 181.806 52.7346 181.807C54.0196 181.807 54.7696 182.251 54.4256 182.807C54.0856 183.357 52.9196 183.807 51.8356 183.807C49.1316 183.807 48.3886 186.338 50.2556 189.188C51.2816 190.754 55.1246 192.829 61.6156 195.323C67.0116 197.395 74.4906 200.895 78.2376 203.1C84.0996 206.549 85.4516 207.906 87.9376 212.832C90.8656 218.632 92.3496 219.863 96.2576 219.737C98.3606 219.669 98.3656 219.64 96.4256 218.777C95.1756 218.222 97.8326 218.091 103.507 218.43C112.457 218.963 112.613 218.933 114.301 216.357C115.243 214.92 116.444 214.009 116.97 214.334C117.496 214.659 117.926 214.197 117.926 213.307C117.926 212.417 117.557 211.917 117.106 212.196C115.767 213.023 116.494 202.032 117.889 200.351C119.973 197.84 123.564 198.491 125.926 201.807C127.595 204.151 128.758 204.774 131.244 204.657L134.426 204.507L131.426 204.08C126.207 203.337 126.799 202.293 132.245 202.636L137.47 202.966L138.623 198.636C139.639 194.818 139.607 194.536 138.35 196.248C137.567 197.316 136.926 197.691 136.926 197.082C136.926 196.472 138.163 195.003 139.676 193.816C141.188 192.63 141.86 191.946 141.168 192.297C140.176 192.8 140.154 192.401 141.065 190.402C141.699 189.009 142.603 188.107 143.072 188.397C143.542 188.688 143.926 188.209 143.926 187.335C143.926 186.46 144.601 185.485 145.426 185.169C146.251 184.852 146.926 184.121 146.926 183.545C146.926 182.969 146 183.335 144.867 184.36C143.415 185.674 141.614 186.137 138.752 185.93C135.4 185.688 134.152 186.154 131.561 188.612C128.03 191.962 124.414 193.405 123.451 191.848C123.089 191.262 123.666 190.807 124.772 190.807C125.853 190.807 128.679 189.185 131.052 187.202C134.868 184.013 135.857 183.652 139.607 184.074C142.877 184.443 144.229 184.129 145.52 182.703C146.44 181.686 147.583 181.095 148.06 181.39C148.536 181.684 148.926 181.373 148.926 180.699C148.926 180.025 149.196 179.744 149.526 180.074C149.856 180.404 149.756 181.266 149.304 181.99C147.677 184.597 148.013 185.914 150.134 185.241C151.588 184.779 151.96 184.942 151.426 185.807C150.881 186.689 151.291 186.826 152.926 186.307C154.164 185.914 154.939 185.978 154.649 186.45C154.358 186.921 155.765 187.388 157.773 187.488C159.782 187.587 160.785 187.411 160.003 187.097C159.2 186.774 161.195 185.722 164.574 184.685C168.952 183.34 170.945 182.139 171.968 180.229C172.738 178.79 174.586 176.588 176.075 175.335C177.563 174.083 179.282 171.198 179.894 168.924C180.847 165.387 180.749 164.441 179.217 162.367C176.592 158.815 173.071 157.397 171.046 159.076C166.496 162.851 160.82 163.621 151.8 161.687C147.137 160.687 146.433 160.761 145.251 162.378C143.268 165.09 143.642 168.974 146.381 174.127C148.056 177.277 148.484 178.962 147.727 179.43C147.055 179.845 146.899 179.66 147.331 178.962C147.723 178.327 147.579 177.807 147.011 177.807C145.149 177.807 142.691 171.549 142.617 166.619C142.505 159.222 142.779 159.104 157.12 160.379C164.212 161.009 165.151 160.865 169.12 158.53C171.488 157.137 174.493 154.854 175.798 153.458C177.984 151.118 178.103 150.461 177.312 145.113C176.84 141.919 176.563 137.957 176.696 136.307C176.854 134.347 176.641 133.764 176.082 134.624C175.452 135.593 174.898 135.153 173.993 132.968C172.833 130.169 172.337 129.953 165.593 129.313C155.434 128.349 148.172 126.11 146.689 123.485C144.601 119.79 143.068 111.943 144.327 111.394C144.931 111.13 143.176 110.919 140.426 110.924C133.755 110.938 131.912 110.639 132.529 109.64C132.812 109.182 132.567 108.807 131.985 108.807C129.632 108.807 131.248 106.254 137.452 100.171C143.037 94.6955 143.828 93.4935 142.94 91.8335C141.597 89.3235 136.225 88.3385 132.416 89.9025C130.771 90.5775 129.132 91.0725 128.772 91.0005C128.412 90.9295 127.512 91.6165 126.772 92.5265C125.592 93.9775 125.66 94.0945 127.317 93.4715C128.946 92.8605 129.028 92.9795 127.906 94.3315C126.974 95.4555 126.399 95.5735 125.889 94.7485C125.373 93.9135 124.987 93.9005 124.492 94.7005C124.116 95.3095 124.172 95.8145 124.617 95.8225C125.062 95.8315 124.751 96.2745 123.926 96.8075C123.101 97.3405 120.749 97.7835 118.699 97.7925C115.821 97.8045 114.6 97.2405 113.34 95.3165C111.397 92.3515 110.382 92.7805 108.462 97.3755C106.724 101.534 104.833 101.707 99.7366 98.1765L95.9406 95.5455L90.9416 98.0195C85.0846 100.917 83.4966 100.462 88.2346 97.2435C92.8026 94.1395 95.9236 93.9575 99.6066 96.5805C103.476 99.3355 107.117 99.5945 106.3 97.0575C105.82 95.5635 105.904 95.5265 106.876 96.8075C107.84 98.0765 107.973 97.9995 107.738 96.3075C107.585 95.2075 108.251 93.1825 109.217 91.8075L110.974 89.3075L113.522 92.5575C117.138 97.1685 120.727 96.9535 126.327 91.7925C129.426 88.9355 131.198 87.9745 132.468 88.4625C133.79 88.9695 134.041 88.8025 133.435 87.8215C132.791 86.7795 133.318 86.6355 135.896 87.1515C137.7 87.5125 140.008 87.8075 141.025 87.8075C142.086 87.8075 143.565 89.1425 144.494 90.9385L146.113 94.0695L139.396 100.837C132.893 107.391 132.75 107.642 134.877 108.781C137.823 110.358 147.117 109.733 147.722 107.918C148.029 106.997 147.756 106.794 146.912 107.316C145.102 108.434 148.798 102.362 152.754 97.7155C155.798 94.1415 156.481 93.8195 160.754 93.9495L165.426 94.0915L161.426 94.8625L157.426 95.6335L162.426 95.5475C168.1 95.4505 172.926 96.5655 172.926 97.9745C172.926 98.4975 173.383 98.6425 173.942 98.2975C174.501 97.9515 174.7 97.2505 174.383 96.7385C174.067 96.2265 174.172 95.7735 174.617 95.7305C175.062 95.6885 176.326 95.5035 177.426 95.3185C179.1 95.0375 178.992 95.3155 176.757 97.0295L174.089 99.0765L178.757 106.14C181.325 110.025 185.108 115.027 187.164 117.256C189.903 120.225 190.904 122.193 190.914 124.623C190.929 128.808 189.319 131.895 187.488 131.192C186.358 130.759 186.459 130.274 188.003 128.73C191.008 125.725 190.371 122.643 185.839 118.26C183.592 116.086 179.711 111.157 177.215 107.307C174.72 103.457 172.281 100.156 171.796 99.9725C171.311 99.7875 171.215 99.1485 171.584 98.5525C172.014 97.8555 171.64 97.7035 170.538 98.1265C169.594 98.4885 169.041 98.4315 169.307 97.9995C169.574 97.5675 166.956 97.1095 163.489 96.9815C157.334 96.7535 157.107 96.8375 153.867 100.527C152.041 102.606 150.108 104.307 149.57 104.307C149.033 104.307 148.384 104.932 148.13 105.696C147.821 106.622 148.095 106.821 148.951 106.292C150.568 105.292 149.428 107.416 146.74 110.412C145.139 112.195 144.995 113.161 145.798 116.733C146.319 119.053 147.508 121.792 148.44 122.822C150.318 124.898 161.618 127.807 167.802 127.807C171.511 127.807 174.926 129.727 174.926 131.811C174.926 132.285 175.762 132.937 176.783 133.262C178.057 133.666 178.509 134.551 178.222 136.079C177.992 137.304 178.236 141.007 178.763 144.307C179.403 148.313 179.383 150.723 178.702 151.557C178.14 152.245 178.031 152.807 178.459 152.807C178.886 152.807 178.431 153.696 177.447 154.783C176.464 155.87 175.156 156.529 174.542 156.246C173.928 155.964 174.29 156.312 175.347 157.02C176.403 157.728 178.881 159.723 180.853 161.454L184.439 164.6L188.352 162.593C193.454 159.975 198.559 159.744 200.634 162.037C202.834 164.468 206.628 164.321 207.437 161.773C208.424 158.662 212.007 155.807 214.923 155.807C217.84 155.807 220.163 154.286 221.696 151.37C222.454 149.928 222.193 148.069 220.672 144.094C217.963 137.015 219.029 134.621 226.33 131.392C231.628 129.049 231.818 128.824 233.476 122.913C234.413 119.573 235.685 116.443 236.303 115.956C236.921 115.47 239.817 114.291 242.739 113.338C248.75 111.377 250.183 109.163 249.232 103.306C248.694 99.9905 249.049 99.2485 253.212 94.9865C256.255 91.8705 258.003 89.0915 258.445 86.6665C258.974 83.7585 260.178 82.2505 264.425 79.1725C267.349 77.0525 269.557 75.0195 269.331 74.6535C268.648 73.5485 270.07 70.7785 271.019 71.3655C271.505 71.6655 271.607 71.1395 271.245 70.1955C270.88 69.2465 270.997 68.7325 271.506 69.0465C272.012 69.3575 272.526 68.1935 272.649 66.4605C272.822 64.0105 272.638 63.6425 271.824 64.8075C271.054 65.9105 270.938 65.2485 271.388 62.3075C271.83 59.4225 271.715 58.7255 270.978 59.8075C270.1 61.0965 269.954 61.0615 269.941 59.5575C269.933 58.5955 269.364 57.8005 268.676 57.7925C267.839 57.7815 267.922 57.4495 268.926 56.7855C269.964 56.0995 268.577 55.9555 264.426 56.3175C260.05 56.6995 258.967 56.5715 260.426 55.8435C261.91 55.1035 261.136 54.9885 257.426 55.3985C253.684 55.8115 252.803 55.6775 253.926 54.8655C255.028 54.0685 251.576 53.8145 240.926 53.9085L226.426 54.0375L224.478 50.7405C223.407 48.9285 223.022 47.7485 223.623 48.1205C224.224 48.4915 224.983 48.1005 225.31 47.2495C225.701 46.2305 225.481 45.9215 224.665 46.3425C223.983 46.6935 224.46 46.1365 225.725 45.1035C227.345 43.7795 227.811 42.6725 227.305 41.3525C226.806 40.0515 226.943 39.7005 227.756 40.2025C228.4 40.6005 228.926 40.4485 228.926 39.8665C228.926 39.2845 228.449 38.8075 227.867 38.8075C227.285 38.8075 227.057 38.4045 227.361 37.9125C227.666 37.4195 227.214 36.7485 226.357 36.4195C225.5 36.0905 225.039 35.4335 225.332 34.9595C225.626 34.4845 224.642 34.2915 223.146 34.5305C221.01 34.8705 220.748 34.7345 221.926 33.8955C223.127 33.0405 222.891 32.8675 220.747 33.0295C219.273 33.1405 218.148 33.6985 218.247 34.2695C218.345 34.8405 217.863 35.1945 217.176 35.0575C216.488 34.9195 216.038 35.3695 216.176 36.0575C216.313 36.7445 215.88 37.2005 215.212 37.0695C214.51 36.9315 214.239 37.4595 214.569 38.3195C215.068 39.6195 214.017 40.2425 211.795 39.9655C211.448 39.9225 210.323 40.8815 209.295 42.0975L207.426 44.3075L209.926 42.3075L212.426 40.3075L210.619 42.4495C208.805 44.5985 204.277 44.6665 205.601 42.5235C206.005 41.8705 205.632 41.7065 204.622 42.0935C203.724 42.4385 202.681 42.2205 202.304 41.6095C201.862 40.8945 202.117 40.7625 203.021 41.2395C203.794 41.6475 203.301 41.0025 201.926 39.8075C200.551 38.6125 200.101 37.9675 200.926 38.3745C201.779 38.7955 201.564 38.2425 200.426 37.0905C199.326 35.9765 198.244 35.2265 198.023 35.4235C197.801 35.6205 196.001 34.8485 194.023 33.7085C191.904 32.4875 191.248 32.3155 192.426 33.2895C193.526 34.1995 194.989 35.2695 195.678 35.6665C196.659 36.2325 196.574 37.2935 195.287 40.5705C194.384 42.8705 193.21 44.4825 192.678 44.1545C192.097 43.7945 191.972 44.5025 192.367 45.9325C192.913 47.9135 192.842 48.0215 191.939 46.5845C191.109 45.2625 191.352 43.8925 192.988 40.6855L195.119 36.5095L191.94 34.0215C188.839 31.5945 188.776 31.3845 189.34 25.4205C189.729 21.3075 189.615 19.9615 188.992 21.3075C188.227 22.9605 188.054 22.6565 187.996 19.5575C187.958 17.4955 187.894 15.4695 187.855 15.0575C187.742 13.8735 184.716 10.8075 183.66 10.8075C183.135 10.8075 183.563 11.5955 184.612 12.5575C185.662 13.5205 186.049 14.0395 185.473 13.7125C183.307 12.4825 180.841 11.8615 181.343 12.6725C181.629 13.1365 180.731 14.0305 179.348 14.6615C176.199 16.0965 174.947 16.1185 176.926 14.7055C178.131 13.8445 177.984 13.7305 176.176 14.1275C174.938 14.3985 173.926 14.1855 173.926 13.6545C173.926 13.1235 173.476 12.9675 172.926 13.3075C172.376 13.6475 171.926 13.1975 171.926 12.3075C171.926 11.4175 172.369 10.9635 172.911 11.2985C173.522 11.6755 173.68 10.6535 173.327 8.60746C172.875 5.98846 172.995 5.61746 173.907 6.80746C174.831 8.01246 174.919 7.81646 174.357 5.80746C173.972 4.43246 173.216 3.02446 172.678 2.67846C172.103 2.30846 172.261 1.80746 173.063 1.46146C173.813 1.13746 172.673 1.14546 170.531 1.47846C167.764 1.90946 166.839 1.75646 167.336 0.95246C167.797 0.20646 167.164 -0.10754 165.481 0.03246C164.076 0.14846 162.926 0.76346 162.926 1.39846ZM157.872 5.55746L154.426 9.30746L158.176 5.86146C160.239 3.96546 161.926 2.27846 161.926 2.11146C161.926 1.34746 161.08 2.06746 157.872 5.55746ZM122.798 48.5575C121.555 50.1435 121.59 50.1785 123.176 48.9355C124.842 47.6285 125.371 46.8075 124.548 46.8075C124.341 46.8075 123.553 47.5955 122.798 48.5575ZM190.609 48.9955C190.29 49.7925 190.053 49.5555 190.005 48.3905C189.962 47.3365 190.198 46.7465 190.53 47.0785C190.862 47.4105 190.898 48.2735 190.609 48.9955ZM192.02 53.1135C190.714 54.4195 190.532 52.9725 191.646 50.1395C192.341 48.3725 192.38 48.3735 192.74 50.1635C192.946 51.1845 192.621 52.5125 192.02 53.1135ZM193.027 57.5195C192.067 59.1705 191.984 59.1475 191.956 57.2245C191.923 54.9095 193.192 53.1045 193.726 54.7075C193.914 55.2705 193.599 56.5365 193.027 57.5195ZM246.676 55.5465C243.514 55.7445 238.338 55.7445 235.176 55.5465C232.014 55.3485 234.601 55.1855 240.926 55.1855C247.251 55.1855 249.838 55.3485 246.676 55.5465ZM194.47 63.5575C194.124 67.7515 194.225 68.4955 194.843 66.3075C195.655 63.4285 195.694 63.4785 195.808 67.5575C195.873 69.8955 195.738 71.8075 195.508 71.8075C195.278 71.8075 194.436 72.0585 193.637 72.3645C192.81 72.6825 191.903 72.1905 191.532 71.2235C191.035 69.9285 191.183 69.7765 192.154 70.5815C193.16 71.4165 193.353 70.7065 193.074 67.1995C192.729 62.8685 193.473 57.8075 194.454 57.8075C194.723 57.8075 194.73 60.3945 194.47 63.5575ZM190.288 72.3075C190.604 73.1325 190.427 73.8075 189.895 73.8075C189.362 73.8075 188.926 73.1325 188.926 72.3075C188.926 71.4825 189.103 70.8075 189.319 70.8075C189.535 70.8075 189.971 71.4825 190.288 72.3075ZM185.843 73.4355C186.072 73.6405 184.384 73.8075 182.093 73.8075C177.344 73.8075 176.948 74.8115 179.926 79.3075C181.019 80.9575 181.88 83.4325 181.84 84.8075C181.763 87.4735 181.47 86.9785 180.484 82.5165C180.145 80.9815 179.478 79.9665 179.001 80.2605C177.983 80.8905 176.846 78.4435 176.323 74.4985L175.951 71.6885L180.689 72.3765C183.294 72.7545 185.614 73.2315 185.843 73.4355ZM265.083 80.1535C261.826 82.5135 260.52 84.2985 259.638 87.5955C258.808 90.6995 257.292 92.9055 254.315 95.3455L250.152 98.7565L250.663 105.113L251.173 111.471L244.799 113.789C241.294 115.064 237.893 116.602 237.241 117.207C236.59 117.812 235.438 120.782 234.681 123.807C233.366 129.065 233.065 129.422 227.843 131.931C219.849 135.771 219.563 136.344 222.018 143.612C223.924 149.257 223.962 149.917 222.506 151.996C221.637 153.237 220.926 154.781 220.926 155.428C220.926 156.075 224.414 157.867 228.676 159.41C232.938 160.953 236.963 162.911 237.62 163.761C238.276 164.611 239.343 167.557 239.992 170.307C241.422 176.376 244.116 181.047 247.445 183.228C248.812 184.123 251.127 186.664 252.59 188.875C254.86 192.305 255.636 192.81 257.885 192.316C260.161 191.816 261.484 192.732 267.598 199.036L274.676 206.336L275.4 213.546L276.124 220.756L281.197 223.685L286.271 226.614L289.957 224.288C292.715 222.546 302.235 219.807 305.529 219.807C305.659 219.807 306.512 217.558 307.425 214.809L309.085 209.812L304.555 204.633C302.064 201.785 300.262 199.073 300.55 198.606C300.839 198.139 300.479 197.881 299.75 198.032C298.949 198.198 298.551 197.576 298.743 196.457C298.933 195.346 298.633 194.87 297.993 195.266C297.406 195.628 296.875 195.561 296.812 195.116C296.125 190.241 296.176 188.844 297.024 189.368C297.634 189.745 297.746 188.939 297.32 187.242C296.805 185.188 296.946 184.701 297.887 185.283C298.815 185.857 298.955 185.474 298.426 183.807C297.927 182.234 298.057 181.77 298.859 182.266C299.671 182.767 299.806 182.176 299.32 180.242C298.805 178.188 298.946 177.701 299.887 178.283C300.815 178.857 300.955 178.474 300.426 176.807C299.986 175.42 300.089 174.79 300.694 175.164C301.235 175.498 301.676 174.665 301.676 173.307C301.676 171.849 301.25 171.107 300.631 171.489C299.986 171.888 299.83 171.498 300.225 170.471C300.576 169.555 300.38 168.807 299.788 168.807C299.196 168.807 298.98 168.109 299.308 167.255C299.681 166.282 299.494 165.956 298.807 166.38C298.088 166.825 297.928 166.377 298.341 165.073C298.749 163.788 298.347 162.599 297.199 161.698C295.646 160.479 295.55 160.5 296.426 161.863C296.976 162.718 296.321 162.111 294.971 160.513C293.137 158.343 292.555 156.557 292.669 153.457C292.798 149.991 292.683 149.719 291.974 151.807C291.233 153.989 291.113 153.776 291.026 150.139C290.912 145.365 291.734 142.57 293.019 143.365C293.505 143.665 293.607 143.139 293.245 142.195C292.801 141.038 292.964 140.712 293.745 141.195C294.525 141.677 294.688 141.351 294.245 140.195C293.762 138.939 293.941 138.698 294.911 139.297C295.759 139.822 295.995 139.728 295.568 139.036C295.201 138.443 295.444 136.764 296.108 135.307C297.179 132.957 297.717 132.727 300.871 133.269C303.63 133.744 304.09 133.63 302.926 132.76C301.752 131.883 302.144 131.762 304.726 132.208C306.974 132.596 307.81 132.429 307.351 131.685C306.885 130.932 307.724 130.801 310.051 131.261C312.545 131.754 313.034 131.655 311.926 130.883C310.593 129.954 310.593 129.823 311.926 129.704C312.751 129.63 313.773 129.627 314.197 129.696C314.621 129.764 314.668 128.626 314.301 127.165C313.82 125.248 313.965 124.713 314.82 125.242C315.68 125.773 315.817 125.222 315.32 123.242C314.932 121.696 315.025 120.75 315.533 121.064C316.028 121.37 316.512 119.548 316.61 117.016C316.739 113.68 316.512 112.81 315.786 113.859C315.088 114.867 314.969 113.789 315.396 110.307C315.861 106.513 315.74 105.669 314.896 106.807C314.019 107.99 313.868 107.621 314.182 105.057C314.553 102.028 314.371 101.799 311.503 101.689L308.426 101.57L311.426 100.737C313.695 100.107 312.903 99.9695 308.176 100.169C304.739 100.315 301.926 100.042 301.926 99.5625C301.926 99.0825 301.517 98.9425 301.016 99.2515C298.966 100.519 297.289 98.6805 297.612 95.5195C297.891 92.7985 297.786 92.6135 296.926 94.3075C296.073 95.9885 295.965 95.7815 296.252 93.0135C296.439 91.2015 296.148 89.4445 295.605 89.1085C295.011 88.7415 294.939 89.0205 295.426 89.8075C295.977 90.6995 295.846 90.8755 295.012 90.3605C294.34 89.9455 294.022 88.9985 294.307 88.2575C294.657 87.3445 294.303 87.1095 293.211 87.5285C292.324 87.8685 291.855 87.7335 292.17 87.2275C292.503 86.6915 289.965 86.4375 286.084 86.6195L279.426 86.9325L274.926 82.1195L270.426 77.3075L275.034 81.6265C279.133 85.4685 280.072 85.9005 283.534 85.5445L287.426 85.1435L283.468 84.9755C280.381 84.8445 278.679 83.9955 275.732 81.1185C273.654 79.0895 271.372 77.3435 270.661 77.2395C269.95 77.1345 267.44 78.4465 265.083 80.1535ZM179.833 92.8075C179.081 94.1405 178.982 94.1405 178.941 92.8075C178.9 91.4745 178.775 91.4745 177.816 92.8075C176.956 94.0035 176.89 93.9025 177.494 92.3075C177.909 91.2075 178.488 88.5075 178.778 86.3075L179.307 82.3075L179.993 86.8075C180.37 89.2825 180.298 91.9825 179.833 92.8075ZM153.922 97.3115C152.633 98.6845 152.036 99.8075 152.597 99.8075C153.874 99.8075 157.421 95.9695 156.757 95.3055C156.488 95.0355 155.212 95.9385 153.922 97.3115ZM150.385 101.874C150.022 102.46 149.94 103.155 150.202 103.417C150.464 103.679 150.945 103.199 151.271 102.35C151.947 100.588 151.371 100.278 150.385 101.874ZM130.895 115.307C130.895 115.857 130.459 115.632 129.926 114.807C129.393 113.982 128.957 112.857 128.957 112.307C128.957 111.757 129.393 111.982 129.926 112.807C130.459 113.632 130.895 114.757 130.895 115.307ZM129.895 118.307C129.895 118.857 129.459 118.632 128.926 117.807C128.393 116.982 127.957 115.857 127.957 115.307C127.957 114.757 128.393 114.982 128.926 115.807C129.459 116.632 129.895 117.757 129.895 118.307ZM128.895 121.307C128.895 121.857 128.459 121.632 127.926 120.807C127.393 119.982 126.957 118.857 126.957 118.307C126.957 117.757 127.393 117.982 127.926 118.807C128.459 119.632 128.895 120.757 128.895 121.307ZM127.895 124.307C127.895 124.857 127.459 124.632 126.926 123.807C126.393 122.982 125.957 121.857 125.957 121.307C125.957 120.757 126.393 120.982 126.926 121.807C127.459 122.632 127.895 123.757 127.895 124.307ZM126.895 127.307C126.895 127.857 126.459 127.632 125.926 126.807C125.393 125.982 124.957 124.857 124.957 124.307C124.957 123.757 125.393 123.982 125.926 124.807C126.459 125.632 126.895 126.757 126.895 127.307ZM50.5876 128.057C50.3106 128.745 50.0836 128.182 50.0836 126.807C50.0836 125.432 50.3106 124.87 50.5876 125.557C50.8656 126.245 50.8656 127.37 50.5876 128.057ZM125.895 130.307C125.895 130.857 125.459 130.632 124.926 129.807C124.393 128.982 123.957 127.857 123.957 127.307C123.957 126.757 124.393 126.982 124.926 127.807C125.459 128.632 125.895 129.757 125.895 130.307ZM124.895 133.307C124.895 133.857 124.459 133.632 123.926 132.807C123.393 131.982 122.957 130.857 122.957 130.307C122.957 129.757 123.393 129.982 123.926 130.807C124.459 131.632 124.895 132.757 124.895 133.307ZM185.926 131.903C187.074 132.719 186.762 132.823 184.592 132.348C182.749 131.944 181.983 132.09 182.401 132.767C183.146 133.973 181.875 134.109 179.258 133.103C177.648 132.484 177.728 132.315 179.926 131.703C183.547 130.694 184.257 130.718 185.926 131.903ZM123.911 136.224C123.919 136.728 123.63 136.844 123.268 136.482C122.474 135.688 119.926 137.647 119.926 139.052C119.926 139.602 120.704 139.434 121.654 138.679C122.604 137.925 121.929 139.097 120.154 141.285C115.901 146.525 115.588 153.202 119.426 156.807C122.089 159.308 122.843 164.308 120.676 165.093C119.676 165.455 119.676 165.969 120.676 167.663C122.171 170.194 122.359 175.193 120.926 174.307C120.376 173.967 119.926 172.366 119.926 170.748C119.926 169.13 119.566 167.807 119.126 167.807C117.482 167.807 115.926 170.296 115.926 172.928C115.926 175.161 115.367 175.771 112.804 176.334C110.291 176.886 108.866 176.445 105.503 174.075C101.66 171.365 101.148 171.248 99.1056 172.603C97.8856 173.414 93.6996 174.305 89.8046 174.584C83.1516 175.06 82.6646 175.259 81.7546 177.868C80.5046 181.453 78.6046 182.118 74.5046 180.404C71.4056 179.109 70.8846 179.204 66.3106 181.897C61.4936 184.733 55.9256 185.757 55.9256 183.807C55.9256 183.257 57.1136 182.807 58.5646 182.807C60.0166 182.807 63.2796 181.531 65.8146 179.972C69.7336 177.563 70.8756 177.285 73.4256 178.122C75.0756 178.664 76.7136 179.549 77.0666 180.089C77.6536 180.99 78.6106 179.756 81.5486 174.307C82.1976 173.104 83.7826 172.237 85.5266 172.13L88.4256 171.953L85.4256 172.829C83.0946 173.509 83.8896 173.652 88.9966 173.47C93.8556 173.296 96.3286 172.68 98.4926 171.104L101.418 168.973L106.174 172.39C108.79 174.269 111.492 175.8 112.178 175.792C113.023 175.781 112.941 175.43 111.926 174.705C110.724 173.847 110.879 173.733 112.705 174.134C114.808 174.596 114.936 174.377 114.36 171.307C113.849 168.582 114.115 167.776 115.831 166.858C116.983 166.241 117.926 166.063 117.926 166.463C117.926 166.862 118.587 166.316 119.394 165.248C120.202 164.181 120.845 162.182 120.824 160.807C120.789 158.521 120.712 158.478 119.926 160.307C119.453 161.407 119.035 161.697 118.996 160.951C118.958 160.206 117.801 158.259 116.426 156.625C112.498 151.956 112.973 146.751 117.926 140.191C120.126 137.277 121.933 134.311 121.941 133.6C121.959 132.107 123.885 134.673 123.911 136.224ZM116.936 142.793C115.349 145.021 114.907 146.861 115.193 150.043L115.577 154.307L115.751 149.961C115.854 147.41 116.78 144.416 117.994 142.711C119.132 141.114 119.837 139.807 119.562 139.807C119.287 139.807 118.105 141.151 116.936 142.793ZM175.798 154.557C174.555 156.143 174.59 156.178 176.176 154.935C177.842 153.628 178.371 152.807 177.548 152.807C177.341 152.807 176.553 153.594 175.798 154.557ZM39.5846 155.065C40.0066 155.748 39.6516 155.916 38.6216 155.521C37.7236 155.176 36.6806 155.394 36.3036 156.005C35.8876 156.678 36.0716 156.835 36.7706 156.402C37.4056 156.01 37.9256 155.925 37.9256 156.213C37.9256 156.501 36.9716 157.247 35.8046 157.872C34.0956 158.786 33.8196 158.745 34.3786 157.657C34.8206 156.799 34.5916 156.853 33.7496 157.807C33.0216 158.632 30.6256 159.44 28.4256 159.603C26.0676 159.778 24.9246 159.557 25.6416 159.065C26.3366 158.588 23.4796 158.247 18.9756 158.269C14.6406 158.29 10.7176 158.717 10.2596 159.217C9.78161 159.739 9.91961 159.845 10.5826 159.466C11.3596 159.021 11.5606 159.488 11.1936 160.89C10.7726 162.501 10.4416 162.672 9.74261 161.642C9.08361 160.672 8.91661 160.877 9.12861 162.392C9.29961 163.611 8.36461 165.479 6.87461 166.892C5.47361 168.22 5.22161 168.632 6.31361 167.807C7.40661 166.982 6.79061 168.219 4.94561 170.557C1.62161 174.769 1.59061 174.902 1.50861 185.71C1.46261 191.758 1.05661 196.101 0.597614 195.461C0.131614 194.812 0.0296139 195.62 0.365614 197.307C1.34861 202.256 1.49861 202.717 2.39061 203.528C2.86061 203.956 2.90961 203.632 2.49961 202.807C2.08861 201.982 2.68061 202.432 3.81561 203.807C5.36461 205.684 5.74061 207.179 5.32761 209.807C4.91161 212.443 5.03761 212.937 5.83561 211.807C6.77961 210.47 7.35161 211.038 7.05561 213.021C6.99761 213.414 7.69261 213.45 8.60161 213.101C9.80661 212.639 10.0296 212.83 9.42561 213.807C8.82061 214.786 9.04561 214.975 10.2616 214.508C12.1786 213.773 15.1366 214.656 14.4546 215.761C14.2016 216.17 15.4236 216.545 17.1706 216.595C19.6066 216.664 20.0066 216.447 18.8856 215.662C17.8156 214.912 18.3076 214.791 20.7256 215.208C22.9736 215.596 23.8096 215.429 23.3506 214.685C22.8846 213.932 23.7236 213.801 26.0506 214.261C28.6936 214.784 29.1006 214.681 27.9256 213.789C26.7156 212.87 26.9616 212.736 29.1996 213.095C30.7246 213.339 32.2576 213.08 32.6036 212.518C32.9866 211.9 32.6816 211.79 31.8306 212.239C31.0576 212.647 31.5506 212.002 32.9256 210.807C34.3006 209.612 34.7506 208.937 33.9256 209.307C33.1006 209.677 33.5506 209.002 34.9256 207.807C36.3006 206.612 36.7936 205.967 36.0206 206.375C35.0946 206.864 34.8596 206.723 35.3306 205.962C35.7226 205.327 38.1826 204.807 40.7976 204.807C44.8916 204.807 45.9586 205.258 48.4886 208.057L51.4256 211.307L48.2746 208.465C46.3636 206.741 44.3956 205.81 43.2746 206.099C41.6486 206.518 41.6756 206.589 43.5016 206.691C44.6426 206.755 46.6206 207.918 47.8966 209.276C49.1726 210.634 50.5496 211.539 50.9576 211.287C51.3656 211.035 52.2546 211.499 52.9346 212.318C53.6146 213.137 54.9026 213.814 55.7976 213.822C57.2166 213.836 57.2326 213.966 55.9256 214.837C54.8706 215.539 55.7606 215.659 58.9256 215.24C61.4056 214.913 62.9066 215.018 62.2706 215.476C61.6346 215.933 66.9036 216.25 73.9796 216.18C81.0546 216.11 86.7496 216.335 86.6346 216.68C86.4206 217.321 87.7236 218.035 88.1756 217.525C88.3136 217.369 87.5766 215.358 86.5376 213.056C84.1666 207.798 75.2456 202.127 60.0486 196.219C48.0386 191.549 46.6876 189.887 48.7206 182.284C49.3826 179.81 49.5806 174.489 49.2196 168.911C48.6386 159.953 48.5116 159.562 45.3626 157.049C42.0026 154.368 38.3866 153.126 39.5846 155.065ZM215.239 156.988C212.457 157.724 208.703 161.128 207.743 163.783C207.042 165.722 202.305 165.935 200.316 164.119C199.224 163.122 199.028 162.757 199.879 163.307C201.197 164.159 201.237 164.065 200.146 162.669C198.666 160.773 195.319 161.299 187.768 164.613C185.206 165.737 182.886 166.434 182.613 166.161C182.34 165.887 181.791 167.144 181.394 168.952C180.478 173.125 170.584 184.425 167.076 185.305C163.272 186.26 161.916 187.694 161.996 190.679C162.061 193.085 162.146 193.138 163.01 191.307C163.823 189.584 163.902 189.684 163.584 192.027C163.381 193.523 163.583 194.519 164.033 194.241C164.482 193.963 165.205 195.043 165.638 196.641L166.426 199.546L171.426 198.221C174.176 197.492 178.552 196.875 181.15 196.851C185.39 196.812 186.031 197.109 187.4 199.757C188.239 201.38 188.926 205.135 188.926 208.102C188.926 214.833 190.75 216.801 197.005 216.821C204.511 216.844 205.445 217.438 207.322 223.394C208.264 226.384 209.573 229.276 210.231 229.82C221.383 239.054 229.066 242.093 230.426 237.807C230.775 236.707 231.486 235.807 232.007 235.807C232.527 235.807 232.261 234.152 231.416 232.13L229.88 228.452L234.992 223.653C239.161 219.738 240.379 217.801 241.595 213.141C242.416 209.999 243.976 206.276 245.062 204.868C253.896 193.414 253.925 193.354 251.957 190.355C250.958 188.831 248.112 185.722 245.633 183.446C242.049 180.154 240.788 178.079 239.472 173.307C236.73 163.357 236.912 163.555 227.589 160.421C222.866 158.833 218.872 157.221 218.714 156.839C218.556 156.457 216.992 156.524 215.239 156.988ZM292.926 157.185C292.926 157.392 293.714 158.18 294.676 158.935C296.262 160.178 296.297 160.143 295.054 158.557C293.747 156.891 292.926 156.362 292.926 157.185ZM178.926 161.185C178.926 161.392 179.713 162.18 180.676 162.935C182.262 164.178 182.297 164.143 181.054 162.557C179.747 160.891 178.926 160.362 178.926 161.185ZM115.926 167.807C115.025 168.389 114.901 168.782 115.617 168.792C116.272 168.8 117.086 168.357 117.426 167.807C118.193 166.565 117.847 166.565 115.926 167.807ZM0.905614 173.331C0.209614 174.169 -0.165386 175.049 0.0706139 175.286C0.307614 175.522 1.05061 174.837 1.72161 173.762C3.17361 171.437 2.68961 171.182 0.905614 173.331ZM120.926 178.375C120.926 179.722 119.576 182.688 117.926 184.966C114.335 189.923 114.069 191.844 117.082 191.056C118.56 190.669 119.014 190.856 118.523 191.649C117.576 193.183 115.727 193.113 113.465 191.459C111.689 190.16 111.7 190.033 113.774 187.959C114.958 186.775 115.664 185.807 115.344 185.807C115.025 185.807 115.7 184.291 116.844 182.439C117.989 180.587 118.926 178.085 118.926 176.88C118.926 175.674 119.376 174.967 119.926 175.307C120.476 175.647 120.926 177.027 120.926 178.375ZM118.026 182.102C116.761 184.209 116.783 184.23 118.505 182.581C119.496 181.631 120.092 180.639 119.829 180.376C119.566 180.113 118.755 180.89 118.026 182.102ZM2.58761 189.057C2.31061 189.745 2.08361 189.182 2.08361 187.807C2.08361 186.432 2.31061 185.87 2.58761 186.557C2.86561 187.245 2.86561 188.37 2.58761 189.057ZM122.426 192.807C122.766 193.357 122.091 193.807 120.926 193.807C119.761 193.807 119.086 193.357 119.426 192.807C119.766 192.257 120.441 191.807 120.926 191.807C121.411 191.807 122.086 192.257 122.426 192.807ZM252.511 197.278C251.483 199.187 250.186 200.468 249.629 200.124C249.028 199.752 248.928 200.001 249.384 200.739C249.855 201.502 248.983 203.198 247.119 205.143C244.898 207.461 243.762 209.988 242.869 214.596C241.705 220.605 239.813 223.152 236.426 223.272C235.876 223.291 235.426 223.982 235.426 224.807C235.426 225.632 234.764 226.307 233.954 226.307C233.073 226.307 232.482 227.256 232.482 228.669C232.482 230.951 232.747 231.031 240.203 231.007C247.91 230.983 247.931 230.99 251.671 234.937C257.152 240.721 258.729 244.311 258.165 249.718C257.824 252.987 256.851 255.191 254.782 257.38C251.892 260.437 251.887 260.462 253.876 262.262C255.74 263.949 256.042 263.961 258.365 262.439C261.638 260.294 262.477 260.358 269.734 263.307C277.039 266.275 281.868 266.484 284.979 263.965C287.189 262.175 287.393 262.177 292.214 264.009C294.943 265.045 298.902 266.774 301.011 267.85C303.964 269.357 307.098 269.84 314.636 269.949L324.426 270.092L314.665 271.038C305.234 271.952 304.76 271.9 300.665 269.506C298.333 268.143 294.534 266.463 292.221 265.773C288.575 264.684 287.676 264.741 285.447 266.201C282.722 267.987 274.926 268.167 274.926 266.445C274.926 265.911 274.666 265.733 274.349 266.051C274.031 266.369 271.283 265.528 268.242 264.183C262.476 261.633 259.926 262.074 259.926 265.621C259.926 266.885 259.625 266.813 258.374 265.248C256.886 263.386 256.853 263.409 257.573 265.807C257.986 267.182 258.282 269.317 258.231 270.55C258.18 271.784 258.475 272.586 258.886 272.332C259.297 272.078 260.122 272.942 260.719 274.252C261.316 275.562 262.844 276.958 264.115 277.354C265.386 277.75 268.038 279.342 270.007 280.891C271.977 282.44 277.028 285.563 281.231 287.83C286.633 290.744 290.786 294.018 295.4 299.001C298.989 302.878 301.91 306.558 301.891 307.179C301.871 307.799 301.212 309.432 300.426 310.807C299.64 312.182 298.936 314.432 298.862 315.807L298.727 318.307L297.999 315.807C297.549 314.261 297.831 312.103 298.74 310.15C300.204 307 300.196 306.982 295.048 301.834C292.211 298.997 290.113 296.313 290.387 295.87C290.661 295.426 288.082 293.58 284.656 291.766C281.229 289.952 276.689 287.382 274.567 286.056C272.444 284.729 270.963 284.057 271.275 284.563C272.401 286.385 257.671 298.386 255.759 297.204C255.301 296.921 254.926 297.129 254.926 297.666C254.926 298.204 253.423 299.573 251.586 300.708C249.748 301.844 247.475 304.48 246.535 306.566C245.594 308.652 243.459 311.247 241.79 312.333C238.839 314.252 238.771 314.471 239.34 320.204C239.662 323.447 239.926 327.153 239.926 328.44C239.926 330.091 241.175 331.591 244.176 333.543C246.514 335.063 248.577 336.647 248.761 337.063C248.946 337.479 249.471 337.588 249.927 337.306C251.798 336.15 255.711 338.91 260.043 344.442C262.569 347.668 264.516 351.097 264.369 352.062C264.222 353.027 264.519 353.558 265.03 353.243C265.541 352.927 265.7 352.25 265.383 351.738C264.671 350.586 264.565 350.577 269.508 352.072C273.982 353.425 289.85 361.907 289.897 362.97C289.948 364.141 283.566 361.439 278.926 358.326C273.451 354.653 266.985 352.513 265.381 353.844C264.755 354.364 263.874 354.456 263.425 354.048C262.975 353.641 262.869 354.04 263.189 354.935C263.508 355.831 263.317 357.016 262.763 357.57C262.087 358.246 262.606 359.923 264.341 362.672C267.375 367.478 267.358 367.4 265.426 367.73C260.785 368.523 253.639 368.047 247.926 366.564C244.351 365.635 238.051 364.354 233.926 363.716C227.129 362.665 226.081 362.185 222.751 358.596L219.075 354.636L218.751 357.471C218.488 359.763 217.983 360.259 216.118 360.058C214.803 359.917 214.072 360.235 214.42 360.797C214.783 361.385 214.327 361.515 213.293 361.118C211.737 360.52 211.778 360.352 213.693 359.498C214.868 358.973 216.012 358.041 216.234 357.426C216.457 356.81 216.521 357.095 216.376 358.057C216.232 359.019 216.58 359.807 217.15 359.807C217.793 359.807 217.987 358.007 217.66 355.057L217.134 350.307L221.862 355.651C226.586 360.991 226.598 360.997 234.508 361.953C238.863 362.479 245.126 363.787 248.426 364.859C254.744 366.911 263.926 367.487 263.926 365.831C263.926 365.294 263.053 363.42 261.986 361.665C260.237 358.79 260.188 358.201 261.486 355.691C262.278 354.159 262.926 352.299 262.926 351.556C262.926 349.588 253.037 338.807 251.231 338.807C248.928 338.807 239.913 333.652 238.898 331.754C238.409 330.842 237.931 326.415 237.835 321.917C237.739 317.419 237.424 313.975 237.135 314.264C236.846 314.553 236.04 314.317 235.343 313.738C234.433 312.983 232.652 313.299 229.021 314.861C223.589 317.198 220.884 316.938 220.996 314.088C221.058 312.516 221.178 312.542 222.015 314.307C222.77 315.898 222.865 315.65 222.478 313.096C222.21 311.33 222.427 309.616 222.959 309.287C223.5 308.952 223.926 310.011 223.926 311.689C223.926 313.339 224.446 315.01 225.081 315.402C225.792 315.842 225.964 315.677 225.529 314.973C225.057 314.21 225.392 314.049 226.538 314.488C227.621 314.904 228.012 314.755 227.599 314.087C226.795 312.786 233.189 311.438 235.97 312.321C238.867 313.24 243.859 309.213 246.099 304.149C247.832 300.231 248.865 299.324 251.176 299.689C251.588 299.754 251.926 299.409 251.926 298.922C251.926 297.953 256.047 295.018 258.021 294.581C258.702 294.43 260.028 293.576 260.968 292.682C261.907 291.788 263.07 290.884 263.551 290.672C264.032 290.461 265.677 288.903 267.207 287.21C270.667 283.381 270.022 281.229 264.783 279.133C260.39 277.375 256.926 273.168 256.926 269.59C256.926 268.219 255.633 265.943 253.926 264.307C252.276 262.726 250.926 260.798 250.926 260.021C250.926 259.245 252.276 257.348 253.926 255.807C255.722 254.129 256.926 251.995 256.926 250.488C256.926 249.103 257.227 247.185 257.596 246.225C258.053 245.034 257.894 244.709 257.096 245.202C256.358 245.658 255.926 245.216 255.926 244.005C255.926 242.949 254.014 240.036 251.676 237.532C247.103 232.635 242.305 230.923 237.183 232.361C235.666 232.787 234.105 233.067 233.712 232.983C233.319 232.899 233.208 233.388 233.464 234.069C233.72 234.75 233.036 236.77 231.943 238.557C229.338 242.817 226.035 242.808 220.594 238.526C218.302 236.722 215.751 235.259 214.926 235.276C214.101 235.293 213.55 234.711 213.701 233.983C213.852 233.254 213.555 232.918 213.041 233.236C211.73 234.046 208.82 232.788 209.491 231.702C209.795 231.21 209.639 230.807 209.143 230.807C208.648 230.807 207.425 228.107 206.426 224.807C205.427 221.507 204.189 218.807 203.675 218.807C203.162 218.807 201.597 219.707 200.199 220.807C198.8 221.907 197.053 222.807 196.315 222.807C195.578 222.807 193.528 224.397 191.759 226.341C189.99 228.284 187.96 229.65 187.247 229.377C186.534 229.103 186.057 229.405 186.188 230.048C186.319 230.69 185.751 231.237 184.926 231.262C184.101 231.287 183.426 231.832 183.426 232.474C183.426 233.115 183.088 233.978 182.676 234.39C182.264 234.803 181.873 236.528 181.808 238.224L181.689 241.307L180.918 238.307C180.384 236.231 180.19 237.654 180.286 242.926C180.376 247.843 180.803 250.402 181.489 250.141C182.074 249.919 183.381 250.652 184.394 251.772C185.66 253.17 187.483 253.807 190.221 253.807C192.83 253.807 194.676 254.411 195.568 255.557C196.852 257.206 196.894 257.2 196.285 255.462C195.685 253.747 196.102 253.667 202.22 254.322C208.414 254.985 209.035 254.859 212.784 252.167C214.974 250.594 217.665 247.459 218.763 245.201L220.76 241.095L218.093 238.272L215.426 235.449L219.021 238.378L222.615 241.307L220.322 245.807C216.899 252.526 211.568 255.807 204.075 255.807C200.301 255.807 197.775 256.275 197.325 257.057C196.929 257.745 196.978 257.969 197.435 257.555C199.186 255.966 201.926 260.075 201.926 264.291C201.926 268.321 201.753 268.546 196.926 270.807C192.524 272.869 191.924 273.517 191.911 276.228C191.892 279.901 190.515 282.569 189.492 280.914C189.116 280.305 189.29 279.807 189.879 279.807C190.56 279.807 190.727 278.415 190.338 275.981C189.731 272.186 189.763 272.141 194.337 270.394C199.368 268.473 200.964 266.448 200.856 262.123C200.794 259.648 200.681 259.549 199.926 261.307C199.299 262.766 199.048 262.881 198.996 261.731C198.873 258.966 194.54 255.807 190.862 255.8C187.59 255.794 181.344 252.722 182.419 251.648C182.699 251.368 180.716 251.17 178.013 251.208C175.235 251.247 173.35 251.683 173.676 252.212C174.001 252.738 173.504 252.859 172.538 252.488C171.594 252.126 171.057 252.209 171.343 252.673C171.63 253.137 170.644 254.594 169.152 255.912L166.44 258.307L168.433 255.876L170.426 253.444L167.779 255.376C166.323 256.438 165.337 257.644 165.588 258.057C165.839 258.47 164.069 258.807 161.656 258.807C157.383 258.807 157.212 258.932 155.161 263.557C152.363 269.864 151.49 277.96 153.122 282.472C154.084 285.133 155.58 286.611 159.128 288.409C161.726 289.726 165.331 292.082 167.139 293.645C169.975 296.097 170.87 296.368 173.663 295.622C175.923 295.018 177.092 293.995 177.533 292.235C177.881 290.848 178.359 289.906 178.594 290.142C179.023 290.571 182.132 288.214 186.536 284.122C188.112 282.657 189.115 282.304 189.578 283.052C189.957 283.666 189.403 284.742 188.347 285.444C181.991 289.666 181.992 289.739 188.426 289.797C192.801 289.837 195.103 290.381 196.926 291.807C200.082 294.276 201.926 294.333 201.926 291.962C201.926 290.947 202.771 289.352 203.803 288.418C205.931 286.493 211.468 285.122 210.447 286.773C210.096 287.342 209.047 287.821 208.117 287.839C205.667 287.885 202.926 290.244 202.926 292.307C202.926 293.286 202.156 294.649 201.216 295.337C199.787 296.382 198.989 296.194 196.371 294.197C193.796 292.233 192.057 291.807 186.617 291.807C181.249 291.807 179.813 292.15 179.027 293.619C178.493 294.616 176.362 295.951 174.292 296.587C170.692 297.692 170.305 297.573 165.476 293.889C162.699 291.769 158.583 289.11 156.331 287.98C152.579 286.097 152.103 286.058 150.637 287.524C149.259 288.902 149.224 289.482 150.38 291.718C152.232 295.299 154.964 297.562 157.926 297.966C159.61 298.196 160.378 298.894 160.279 300.103C160.179 301.33 161.035 302.079 162.985 302.469C165.414 302.955 165.631 303.245 164.453 304.423C163.692 305.184 162.512 305.807 161.831 305.807C161.15 305.807 160.871 305.528 161.212 305.188C161.552 304.847 161.196 303.934 160.421 303.159C159.645 302.384 159.271 301.072 159.588 300.245C160.079 298.966 159.775 298.919 157.55 299.933C155.36 300.93 154.622 300.842 153.02 299.392C151.967 298.439 150.832 296.568 150.497 295.233C149.718 292.131 148.826 292.182 144.797 295.557C142.992 297.069 141.859 297.745 142.28 297.057C143.525 295.02 139.506 295.563 136.638 297.819C135.231 298.926 133.784 301.176 133.423 302.819C132.921 305.108 132.214 305.807 130.406 305.807C129.107 305.807 127.725 305.291 127.336 304.661C126.845 303.866 127.373 303.702 129.062 304.126C131.151 304.651 131.527 304.362 131.715 302.082C132.055 297.982 135.638 294.807 139.926 294.807C143.696 294.807 145.209 293.622 149.501 287.307C151.224 284.771 151.477 283.134 151.132 276.727L150.725 269.146L144.075 270.605C136.44 272.28 134.397 273.701 133.553 277.924C133.178 279.799 132.526 280.678 131.831 280.248C131.062 279.773 130.936 280.262 131.426 281.807C131.937 283.419 131.803 283.849 130.952 283.323C129.427 282.381 130.406 278.16 132.975 274.594L134.931 271.882L132.146 268.594C127.449 263.047 123.49 257.42 124.899 258.29C125.793 258.843 125.998 258.733 125.519 257.958C125.119 257.31 123.777 257.057 122.472 257.385C120.36 257.915 113.926 255.534 113.926 254.222C113.926 253.929 114.489 254.01 115.176 254.403C115.864 254.795 115.076 253.663 113.426 251.888C110.634 248.882 110.011 248.672 104.426 248.848C96.3276 249.103 95.7086 249.003 96.4406 247.557C96.7886 246.87 96.3336 247.207 95.4296 248.307C94.5246 249.407 93.3236 250.18 92.7616 250.026C92.1986 249.871 91.9446 250.321 92.1966 251.026C92.8176 252.761 91.0566 256.006 89.8866 255.283C89.3706 254.964 89.2156 255.399 89.5416 256.249C89.8686 257.1 90.5186 257.558 90.9876 257.269C92.3936 256.4 94.9256 262.425 94.9256 266.641C94.9256 270.119 95.2376 270.633 97.6246 271.09C103.123 272.141 110.313 266.973 111.232 261.311C112.064 256.179 109.682 251.062 106.191 250.487C104.49 250.207 104.966 250.085 107.426 250.169C109.626 250.245 111.288 250.532 111.119 250.807C110.95 251.082 111.452 252.828 112.234 254.687C114.738 260.643 112.467 266.33 105.779 270.851C104.594 271.653 108.167 280.926 110.142 282.171C111.473 283.011 112.383 282.727 114.388 280.842L116.94 278.445L122.683 280.778C125.842 282.062 128.989 283.548 129.676 284.082C131.22 285.28 131.346 287.185 129.819 286.241C129.065 285.775 128.939 286.274 129.426 287.807C129.945 289.442 129.808 289.852 128.926 289.307C128.046 288.763 127.892 289.21 128.367 290.932C128.898 292.858 128.822 292.991 127.968 291.636C127.282 290.547 127.241 289.108 127.852 287.502C128.736 285.177 128.474 284.923 123.158 282.965L117.527 280.891L114.226 282.93C112.089 284.252 110.926 285.756 110.926 287.201C110.926 288.519 109.7 290.338 107.926 291.649C104.148 294.442 103.875 297.807 107.426 297.807C108.801 297.807 109.926 298.266 109.926 298.826C109.926 299.415 110.986 299.579 112.439 299.214C113.874 298.854 115.585 299.109 116.426 299.807C118.509 301.536 120.401 300.514 123.795 295.83C125.53 293.435 126.923 292.283 127.179 293.033C127.419 293.734 126.171 296.107 124.405 298.307C122.639 300.507 121.382 302.828 121.613 303.465C122.44 305.753 120.128 305.724 117.636 303.414C115.958 301.859 113.118 300.762 109.272 300.183C101.948 299.081 101.413 297.36 106.472 291.185C109.836 287.08 110.064 286.434 108.91 284.277L107.637 281.899L103.602 285.353C101.382 287.253 98.6346 288.746 97.4956 288.671C95.6096 288.547 95.6276 288.496 97.6906 288.099C98.9356 287.86 99.7066 287.261 99.4026 286.769C99.0986 286.277 100.608 284.601 102.758 283.044L106.666 280.213L105.189 276.51C104.01 273.553 103.179 272.804 101.069 272.793C95.3596 272.764 93.9256 271.807 93.9256 268.028C93.9256 264.303 89.1096 255.603 86.0626 253.824C84.7316 253.046 84.9326 252.862 87.1406 252.837C88.8226 252.819 90.2676 252.036 90.9406 250.779C91.5396 249.659 92.5276 249.061 93.1456 249.443C93.8826 249.898 94.0406 249.548 93.6066 248.419C93.2446 247.475 93.3506 246.952 93.8426 247.256C94.3426 247.565 94.6676 244.543 94.5816 240.407C94.4956 236.336 94.0676 233.523 93.6306 234.156C93.1636 234.834 92.9446 234.279 93.1006 232.807C93.4466 229.52 92.2566 227.743 90.2296 228.521C89.0436 228.976 88.8236 228.781 89.4256 227.807C90.0306 226.828 89.8056 226.639 88.5896 227.106C86.6856 227.836 83.7126 226.961 84.3876 225.869C84.6346 225.468 83.5276 225.14 81.9256 225.14C80.2566 225.14 79.2746 225.563 79.6256 226.131C79.9916 226.723 79.3846 226.899 78.1186 226.568C75.2126 225.808 73.4686 228.229 73.7336 232.657C73.8826 235.144 73.2826 237.104 71.8526 238.807C70.6966 240.182 70.0856 240.675 70.4936 239.902C70.9706 238.998 70.8386 238.743 70.1236 239.185C69.5126 239.562 69.2486 240.486 69.5376 241.238C69.8256 241.99 69.5116 242.945 68.8396 243.36C68.0056 243.875 67.8746 243.699 68.4256 242.807C68.9726 241.922 68.8446 241.739 68.0316 242.242C67.1866 242.763 67.1386 243.358 67.8686 244.238C68.4406 244.927 68.5746 245.825 68.1666 246.232C67.7596 246.64 68.1006 246.824 68.9256 246.64C69.8346 246.438 70.2946 246.898 70.0926 247.807C69.9086 248.632 70.0976 248.969 70.5116 248.555C70.9246 248.141 72.0486 248.513 73.0076 249.381C73.9666 250.249 77.3786 252.04 80.5886 253.36C85.2566 255.279 85.8666 255.764 83.6356 255.783C82.1016 255.796 79.1196 254.926 77.0096 253.85C73.3646 251.99 71.9256 252.042 71.9256 254.033C71.9256 254.523 72.3076 254.689 72.7746 254.4C73.2416 254.112 73.6616 255.218 73.7076 256.859C73.7546 258.5 73.3776 259.587 72.8706 259.273C72.3626 258.959 72.2386 259.458 72.5936 260.383C73.0156 261.483 72.4066 262.739 70.8316 264.022C69.5086 265.099 69.0766 265.635 69.8726 265.213C70.7126 264.768 70.3686 265.78 69.0526 267.628C66.6736 270.97 62.0386 274.26 63.3786 271.657C63.7616 270.914 63.3446 271.207 62.4536 272.307C61.5616 273.407 60.0666 274.318 59.1296 274.331C58.0366 274.346 57.5396 275.009 57.7426 276.181C57.9306 277.263 57.6296 277.742 57.0036 277.355C56.3626 276.959 56.1816 277.311 56.5426 278.25C56.9166 279.226 55.7536 281.179 53.3876 283.545C50.5026 286.43 49.6146 288.136 49.5326 290.956C49.4736 292.97 49.7626 294.409 50.1756 294.154C50.8216 293.754 51.2756 295.057 51.1136 296.848C51.0866 297.146 52.4956 297.225 54.2456 297.025C56.8066 296.731 57.6206 297.112 58.4256 298.984C58.9756 300.261 60.1926 301.307 61.1296 301.307C62.0666 301.307 63.5616 302.207 64.4536 303.307C65.3446 304.407 65.7616 304.7 65.3786 303.957C64.8196 302.869 65.0956 302.828 66.8046 303.742C67.9716 304.367 68.9256 305.113 68.9256 305.401C68.9256 305.689 68.4056 305.604 67.7706 305.212C67.0496 304.766 66.8886 304.938 67.3406 305.669C67.7386 306.313 68.4416 306.606 68.9026 306.321C69.3636 306.036 70.7946 306.267 72.0836 306.833C74.3826 307.844 74.3846 307.855 72.1746 307.428C70.9356 307.189 70.1706 307.394 70.4726 307.883C70.7756 308.373 74.4886 308.562 78.7246 308.304C84.3016 307.965 85.7366 308.1 83.9256 308.797C81.6626 309.667 81.7566 309.726 84.9146 309.421C86.8796 309.231 90.3746 309.934 92.9146 311.031C98.3496 313.378 103.513 312.95 107.959 309.783C110.5 307.974 111.914 307.671 115.509 308.163C119.226 308.673 120.13 308.453 121.17 306.788C122.444 304.747 125.926 304.029 125.926 305.807C125.926 306.357 125.224 306.807 124.367 306.807C123.51 306.807 123.067 307.226 123.383 307.738C123.7 308.25 123.432 308.994 122.788 309.392C122.014 309.87 121.886 309.68 122.411 308.832C122.932 307.989 122.747 307.7 121.873 307.991C121.141 308.235 120.405 309.756 120.236 311.371C119.976 313.865 120.576 314.739 124.229 317.177C126.593 318.756 129.262 321.327 130.16 322.891C132.287 326.598 134.93 327.159 145.273 326.098C149.972 325.617 154.732 325.561 155.851 325.975C157.515 326.591 158.45 325.905 160.999 322.201C163.875 318.02 164.016 317.438 162.838 314.595C161.657 311.743 161.756 311.35 164.181 309.264C165.62 308.026 166.527 306.741 166.196 306.41C165.864 306.078 166.68 305.8 168.009 305.792C169.937 305.779 170.122 305.58 168.926 304.807C167.741 304.041 167.95 303.842 169.926 303.86C172.308 303.881 172.237 304.045 168.426 307.33C166.226 309.226 164.077 310.784 163.65 310.792C163.224 310.8 163.577 312.165 164.436 313.826C165.933 316.722 165.88 317.016 163.131 321.076C161.556 323.403 159.986 325.792 159.643 326.385C159.221 327.117 160.855 327.368 164.723 327.165C169.895 326.893 170.1 326.956 166.926 327.837C165.001 328.372 161.401 328.501 158.926 328.125C156.451 327.748 149.443 327.568 143.353 327.724L132.281 328.009L128.116 323.034C125.826 320.299 122.621 317.509 120.995 316.836C118.736 315.9 117.966 314.867 117.732 312.459C117.314 308.149 113.172 307.581 108.825 311.238C105.45 314.079 100.1 314.621 93.9186 312.749C88.2616 311.035 85.7256 310.674 86.3396 311.668C87.0306 312.786 84.1396 314.057 82.7956 313.226C82.2246 312.874 82.1196 313.73 82.5316 315.372C83.0626 317.487 82.9196 317.921 81.9016 317.292C80.9496 316.704 80.7626 316.939 81.2246 318.143C81.5756 319.058 81.4006 319.807 80.8356 319.807C80.2696 319.807 80.0146 320.144 80.2676 320.557C80.5206 320.97 77.3946 321.335 73.3216 321.369C68.7376 321.407 66.3946 321.092 67.1706 320.541C67.9746 319.97 67.3696 319.821 65.4886 320.126C62.3616 320.632 59.6756 320.02 60.3366 318.952C60.8746 318.084 51.4386 318.372 49.9886 319.268C49.3486 319.663 49.1296 320.875 49.4916 322.016C49.9676 323.516 49.8016 323.848 48.8626 323.268C47.9706 322.716 47.7666 322.952 48.1886 324.049C48.5496 324.99 47.9166 326.357 46.6086 327.463L44.4256 329.307L46.4256 326.807L48.4256 324.307L46.1616 326.225C44.6236 327.527 44.0966 328.771 44.5186 330.1C44.8606 331.177 44.7296 331.804 44.2296 331.495C43.7286 331.185 43.2726 332.549 43.2166 334.525C43.1416 337.153 43.3796 337.741 44.1006 336.713C44.8026 335.713 44.9086 336.125 44.4666 338.141C44.1026 339.8 44.2326 340.735 44.7806 340.397C45.2956 340.079 45.9886 340.528 46.3206 341.395C47.2046 343.698 47.0316 344.523 46.0046 342.901C45.3956 341.939 45.1466 342.63 45.2166 345.089C45.2726 347.065 45.6326 348.488 46.0176 348.25C47.0176 347.632 48.0596 350.782 47.2746 352.052C46.8566 352.728 47.0996 352.817 47.9406 352.297C48.9106 351.698 49.0896 351.939 48.6066 353.195C48.1936 354.273 48.3406 354.669 49.0036 354.259C49.6306 353.871 49.9306 354.358 49.7426 355.457C49.5196 356.756 49.9506 357.219 51.1886 357.01C52.1586 356.847 53.2196 357.409 53.5456 358.26C53.8726 359.111 54.5676 359.807 55.0916 359.807C55.6156 359.807 55.7656 359.357 55.4256 358.807C54.8396 357.858 55.2696 357.639 58.1756 357.407C58.8636 357.352 62.2396 354.495 65.6786 351.057C70.9636 345.773 72.5096 344.782 75.6786 344.647L79.4256 344.487L76.1106 344.079C74.2726 343.852 72.0446 344.258 71.1106 344.989C69.5976 346.172 69.5656 346.128 70.7976 344.557C72.8156 341.984 78.2836 342.271 80.3496 345.057C81.2676 346.295 81.7486 346.75 81.4196 346.068C81.0356 345.273 81.3546 345.034 82.3106 345.401C83.1806 345.735 83.5466 346.63 83.1926 347.554C82.7906 348.6 82.9816 348.891 83.7556 348.412C84.4766 347.967 84.9256 348.352 84.9256 349.415C84.9256 351.459 72.4456 364.247 71.2016 363.477C70.7296 363.186 70.4756 364.603 70.6366 366.627C70.8676 369.533 70.7336 369.886 69.9976 368.307C69.2156 366.628 69.0546 366.582 68.9956 368.022C68.9576 368.965 69.8256 370.218 70.9256 370.807C73.5396 372.206 73.4566 374.047 70.6756 376.402C68.4396 378.295 68.4356 378.294 69.9256 376.252C70.7506 375.122 70.1976 375.544 68.6966 377.189C67.1956 378.835 65.6616 379.876 65.2886 379.503C64.5276 378.743 61.9256 380.59 61.9256 381.89C61.9256 382.352 62.9386 383.713 64.1756 384.915C65.4136 386.117 65.7936 386.74 65.0206 386.3C64.1006 385.774 63.8536 385.881 64.3036 386.609C64.6806 387.22 65.6046 387.484 66.3566 387.195C67.1086 386.907 68.0636 387.221 68.4786 387.893C68.9936 388.727 68.8176 388.858 67.9256 388.307C67.0526 387.768 66.8576 387.888 67.3406 388.669C67.7386 389.313 68.4716 389.588 68.9696 389.28C70.1426 388.555 79.0716 396.762 78.3616 397.911C77.6416 399.076 81.0326 397.834 82.9256 396.24C83.7506 395.545 86.2256 394.674 88.4256 394.304C95.2026 393.166 95.4926 392.962 100.36 385.903C104.337 380.135 105.439 379.136 107.26 379.652C109.319 380.236 109.327 380.281 107.426 380.576C106.232 380.76 103.619 383.662 100.939 387.779C97.2586 393.435 95.8626 394.784 93.1716 395.289C91.3676 395.627 89.4496 395.631 88.9086 395.296C88.3676 394.962 87.9256 395.166 87.9256 395.748C87.9256 396.33 86.8486 396.807 85.5326 396.807C83.0566 396.807 81.2716 399.285 82.9856 400.344C83.5206 400.675 83.7026 401.359 83.3896 401.865C83.0756 402.373 83.5886 402.49 84.5376 402.126C85.6246 401.709 86.0126 401.858 85.5956 402.532C85.2336 403.118 85.6326 403.864 86.4836 404.191C87.5366 404.595 87.7876 404.39 87.2706 403.546C86.8426 402.848 87.5846 403.018 88.9686 403.935C90.6056 405.02 91.4476 406.537 91.4906 408.481C91.5646 411.811 92.6796 414.077 93.8796 413.335C94.3286 413.058 96.4676 414.513 98.6326 416.569C100.798 418.625 101.657 419.632 100.541 418.807C99.3076 417.895 99.8026 418.974 101.803 421.557C103.613 423.895 105.351 425.807 105.665 425.807C105.979 425.807 105.604 424.997 104.831 424.008C104.058 423.019 104.347 423.162 105.472 424.326C106.597 425.491 108.122 426.242 108.861 425.995C109.629 425.739 109.921 426.006 109.543 426.618C108.627 428.099 115.77 426.976 118.641 425.187C119.859 424.428 122.109 423.814 123.641 423.822C125.807 423.834 126.092 424.053 124.926 424.807C123.791 425.541 124.231 425.78 126.735 425.792C128.555 425.8 129.795 425.404 129.491 424.912C128.847 423.87 131.706 422.553 132.947 423.32C133.41 423.606 134.113 423.313 134.511 422.669C134.991 421.892 134.762 421.743 133.831 422.227C133.058 422.627 133.252 422.282 134.262 421.458C135.472 420.472 137.348 420.133 139.762 420.467C142.535 420.85 143.061 420.713 141.926 419.905C140.778 419.088 141.554 418.834 145.235 418.822C147.88 418.814 149.835 419.144 149.58 419.557C149.326 419.97 151.211 420.227 153.771 420.128C158.194 419.959 158.251 419.99 154.926 420.747L151.426 421.544L154.939 421.675C157.693 421.779 158.665 421.321 159.439 419.557C159.982 418.319 161.138 417.3 162.008 417.291C162.878 417.282 164.678 416.473 166.008 415.494C167.338 414.515 167.794 414.03 167.021 414.415C166.091 414.879 165.864 414.717 166.347 413.935C166.748 413.285 167.605 412.837 168.251 412.938C170.271 413.255 172.946 411.648 172.256 410.532C171.844 409.866 172.216 409.704 173.25 410.101C174.159 410.45 174.795 410.302 174.664 409.773C174.533 409.244 176.208 407.296 178.387 405.443C181.025 403.201 182.387 401.193 182.464 399.434C182.607 396.154 184.311 395.5 184.746 398.557C184.929 399.849 184.539 400.807 183.829 400.807C183.149 400.807 182.894 401.108 183.262 401.476C183.629 401.844 183.192 402.96 182.29 403.957C180.976 405.409 180.894 406.063 181.874 407.244C182.547 408.056 182.811 409.184 182.46 409.752C182.066 410.389 182.479 410.532 183.538 410.126C184.768 409.653 185.031 409.828 184.465 410.744C183.856 411.729 184.419 411.858 186.926 411.307C189.013 410.849 189.954 410.952 189.557 411.595C188.936 412.6 191.243 414.029 193.778 414.21C194.521 414.264 196.996 416.347 199.278 418.841C201.559 421.335 202.768 422.46 201.963 421.341C200.555 419.383 200.586 419.385 202.779 421.4C204.032 422.552 205.183 424.352 205.337 425.4C205.491 426.449 206.249 427.327 207.021 427.352C207.794 427.377 208.302 427.973 208.151 428.677C208 429.38 208.272 429.711 208.756 429.412C209.24 429.113 210.713 430.089 212.031 431.581L214.426 434.293L211.926 432.333C209.75 430.628 209.642 430.613 211.095 432.224C212.305 433.565 214.17 434.074 217.878 434.074C220.691 434.074 223.315 433.717 223.709 433.28C224.103 432.843 223.794 432.853 223.021 433.301C222.047 433.867 221.848 433.742 222.373 432.893C222.788 432.221 223.781 431.921 224.579 432.227C225.377 432.534 225.786 432.39 225.489 431.909C224.789 430.776 227.386 428.6 228.321 429.535C228.712 429.926 228.706 429.398 228.309 428.362C227.823 427.098 227.951 426.705 228.698 427.166C229.457 427.635 229.748 426.498 229.618 423.58L229.426 419.307L233.926 419.521C237.212 419.677 238.021 419.465 236.926 418.733C235.872 418.029 237.552 417.817 242.584 418.019C246.521 418.177 249.554 418.006 249.324 417.637C248.697 416.631 253.938 412.807 255.944 412.807C257.015 412.807 257.878 411.838 258.171 410.307C258.434 408.932 258.213 407.807 257.68 407.807C257.148 407.807 256.98 407.109 257.308 406.255C257.649 405.365 257.481 404.964 256.915 405.314C256.371 405.65 255.926 405.197 255.926 404.307C255.926 403.417 256.371 402.964 256.915 403.3C257.5 403.662 257.637 403.217 257.25 402.209C256.7 400.774 257.028 400.616 259.345 401.197C261.279 401.683 261.885 401.55 261.391 400.751C260.941 400.023 261.36 399.744 262.558 399.975C263.612 400.178 265.297 399.326 266.426 398.017C267.526 396.742 269.326 395.566 270.426 395.404C271.974 395.176 272.35 394.485 272.09 392.346C271.864 390.49 272.123 389.811 272.88 390.278C273.659 390.76 273.806 390.179 273.358 388.391C272.938 386.718 273.121 385.807 273.877 385.807C274.519 385.807 274.759 386.37 274.411 387.057C274.063 387.745 274.456 387.474 275.285 386.457C276.164 385.379 277.302 384.922 278.014 385.361C278.831 385.866 278.977 385.699 278.455 384.854C277.875 383.916 278.252 383.776 279.926 384.307C281.339 384.755 281.946 384.648 281.557 384.019C280.747 382.708 283.461 381.691 285.59 382.508C286.709 382.938 287.017 382.764 286.531 381.977C285.562 380.409 287.001 380.548 289.229 382.238C290.567 383.252 290.696 383.729 289.729 384.085C289.012 384.349 291.576 384.507 295.426 384.436C301.234 384.329 302.555 383.991 303.183 382.45C303.737 381.093 304.579 380.754 306.319 381.191C307.926 381.594 309.14 381.223 310.062 380.047C311.323 378.439 311.279 378.421 309.485 379.807C307.944 380.998 308.038 380.632 309.943 378.03C311.263 376.227 312.909 374.97 313.602 375.236C314.295 375.502 315.171 375.22 315.548 374.609C315.99 373.894 315.735 373.762 314.831 374.239C314.058 374.647 314.551 374.055 315.926 372.925C317.301 371.794 319.091 370.968 319.904 371.088C320.716 371.208 321.398 370.857 321.419 370.307C321.483 368.611 323.019 366.746 323.902 367.292C324.363 367.577 324.505 366.914 324.219 365.82C323.549 363.256 324.785 356.602 325.813 357.237C327.632 358.361 326.056 351.574 323.987 349.372C320.503 345.664 316.593 344.379 312.808 345.698C311.059 346.308 307.557 346.794 305.027 346.778C298.95 346.739 294.542 342.935 293.181 336.555C292.401 332.896 292.555 331.477 294.035 328.698C295.042 326.808 295.92 322.873 296.018 319.807L296.193 314.307L296.914 319.307C297.485 323.266 297.236 325.105 295.719 328.138C293.5 332.573 293.955 336.567 297.238 341.479C299.152 344.343 299.921 344.683 305.144 344.979C308.326 345.159 310.929 345.022 310.928 344.674C310.927 344.325 312.116 343.813 313.57 343.535C317.266 342.828 322.227 345.146 325.582 349.147C327.88 351.888 329.33 352.636 333.138 353.046C337.122 353.474 338.096 353.224 339.435 351.43C340.306 350.262 340.749 349.864 340.42 350.546C340.03 351.354 340.359 351.578 341.368 351.191C342.219 350.864 342.618 350.118 342.256 349.532C341.852 348.878 342.202 348.699 343.165 349.068C344.027 349.399 345.563 348.992 346.579 348.164C347.595 347.336 347.751 347.003 346.926 347.425C345.635 348.084 345.617 347.956 346.798 346.499C347.553 345.568 348.764 344.807 349.489 344.807C350.215 344.807 351.129 344.287 351.521 343.652C351.984 342.904 351.793 342.771 350.981 343.273C349.996 343.881 349.971 343.592 350.861 341.928C351.486 340.761 352.232 339.807 352.52 339.807C352.808 339.807 352.723 340.327 352.331 340.962C351.885 341.683 352.057 341.844 352.788 341.392C353.432 340.994 353.725 340.291 353.439 339.828C352.716 338.658 353.96 335.71 354.926 336.307C355.361 336.576 355.983 336.1 356.31 335.249C356.652 334.358 356.482 333.964 355.907 334.319C355.339 334.67 355.407 333.846 356.065 332.402C356.699 331.009 357.651 330.137 358.179 330.464C358.759 330.822 358.857 330.165 358.426 328.807C357.944 327.29 358.068 326.776 358.804 327.231C359.548 327.691 359.715 326.856 359.327 324.607C358.91 322.19 359.031 321.698 359.781 322.767C360.503 323.797 360.692 321.885 360.425 316.267C360.149 310.459 360.263 309.389 360.845 312.307C361.377 314.975 361.624 311.312 361.588 301.307C361.536 286.633 361.521 286.535 360.926 296.807L360.317 307.307L360.122 296.557L359.926 285.807H355.597C351.386 285.807 351.204 285.672 348.947 280.851C347.67 278.126 345.906 275.745 345.026 275.561C343.826 275.31 343.956 275.081 345.545 274.644C347.352 274.148 347.991 274.853 349.891 279.435C351.947 284.395 352.37 284.807 355.416 284.807C357.752 284.807 359.693 283.879 362.07 281.627C363.916 279.878 364.751 278.792 363.926 279.214C363.101 279.635 363.551 279.002 364.926 277.807C366.301 276.612 366.775 275.979 365.979 276.401C364.027 277.437 368.009 271.897 371.068 269.323C372.724 267.929 372.533 268.376 370.426 270.823L367.426 274.307L370.633 271.411C373.108 269.176 373.63 268.122 372.918 266.793C372.411 265.845 372.318 264.748 372.711 264.355C373.104 263.962 372.751 263.79 371.926 263.974C370.742 264.237 370.492 263.424 370.737 260.118C370.974 256.921 370.55 255.431 368.95 253.831C367.797 252.678 367.09 251.351 367.379 250.884C367.668 250.416 367.121 249.42 366.165 248.67C364.555 247.408 364.537 247.455 365.926 249.307C367.295 251.133 367.282 251.195 365.779 250.02C364.783 249.242 364.324 247.859 364.616 246.52C365.006 244.736 364.892 244.597 364.028 245.807C363.101 247.105 362.955 247.074 362.941 245.577C362.927 243.977 369.298 239.825 371.246 240.164C371.698 240.243 372.518 239.5 373.071 238.513C373.679 237.426 374.754 236.935 375.8 237.267C377.896 237.932 384.226 231.778 384.44 228.865C384.52 227.784 384.135 227.178 383.586 227.517C382.996 227.882 382.843 227.466 383.212 226.503C383.557 225.605 383.339 224.562 382.728 224.185C381.999 223.734 381.895 223.98 382.425 224.902C382.87 225.675 382.322 225.407 381.208 224.307C380.093 223.207 379.311 222.074 379.47 221.789C379.628 221.503 377.936 221.444 375.71 221.656C373.145 221.901 371.892 221.671 372.289 221.029C372.633 220.472 372.219 219.75 371.368 219.423C370.477 219.081 370.083 219.251 370.438 219.826C370.789 220.394 369.965 220.326 368.521 219.668C367.128 219.034 366.223 218.136 366.509 217.672C366.796 217.209 366.258 217.126 365.314 217.488C364.218 217.909 363.838 217.758 364.263 217.07C364.691 216.378 364.126 216.17 362.677 216.487C360.874 216.882 360.724 216.769 361.926 215.916C363.009 215.148 361.095 215.029 355.049 215.487C347.038 216.095 346.587 216.018 344.713 213.715C343.635 212.391 343.103 211.982 343.531 212.807C344.214 214.123 344.071 214.131 342.368 212.873C341.3 212.084 339.301 210.266 337.926 208.834C336.551 207.401 335.876 206.888 336.426 207.693C337.14 208.738 336.64 208.645 334.676 207.367C331.965 205.603 330.745 204.009 333.176 205.408C333.902 205.826 334.077 205.746 333.593 205.217C333.134 204.717 332.347 204.251 331.843 204.182C331.338 204.113 330.449 204.001 329.867 203.932C329.285 203.863 329.083 203.362 329.419 202.818C329.782 202.231 329.333 202.097 328.314 202.488C327.157 202.932 326.831 202.769 327.314 201.988C327.796 201.208 327.47 201.045 326.314 201.488C325.157 201.932 324.831 201.769 325.314 200.988C325.796 200.208 325.47 200.045 324.314 200.488C323.157 200.932 322.831 200.769 323.314 199.988C323.796 199.208 323.47 199.045 322.314 199.488C321.157 199.932 320.831 199.769 321.314 198.988C321.796 198.208 321.47 198.045 320.314 198.488C319.32 198.87 318.848 198.742 319.193 198.185C319.52 197.655 318.909 197.156 317.835 197.075C316.637 196.985 316.148 197.357 316.568 198.037C317.012 198.756 316.667 198.922 315.59 198.508C314.675 198.157 313.926 198.306 313.926 198.838C313.926 199.371 311.13 199.807 307.714 199.807H301.501L306.121 204.557L310.741 209.307L308.583 215.26L306.426 221.213L300.362 222.306C297.027 222.907 292.164 224.65 289.554 226.179C285.068 228.808 284.675 228.873 282.367 227.36C281.025 226.481 279.926 225.536 279.926 225.261C279.926 224.986 281.065 225.507 282.457 226.419C283.849 227.332 285.169 227.897 285.39 227.676C285.611 227.455 283.968 226.225 281.739 224.942C279.509 223.659 278.012 223.137 278.41 223.782C278.905 224.582 278.482 224.547 277.076 223.669C275.561 222.723 274.853 220.919 274.395 216.845C273.473 208.635 272.954 207.537 266.611 200.374C261.727 194.858 260.284 193.807 257.589 193.807C254.953 193.807 254.047 194.426 252.511 197.278ZM164.084 197.807C164.084 199.182 164.311 199.745 164.588 199.057C164.866 198.37 164.866 197.245 164.588 196.557C164.311 195.87 164.084 196.432 164.084 197.807ZM174.926 198.944C174.926 199.637 169.628 200.852 166.426 200.892C164.586 200.915 164.567 200.997 166.184 201.916C167.151 202.466 168.388 202.639 168.934 202.302C169.48 201.965 169.926 202.192 169.926 202.807C169.926 203.422 170.424 203.617 171.033 203.241C171.787 202.775 171.913 203.274 171.426 204.807C170.939 206.34 171.065 206.839 171.819 206.373C173.886 205.096 172.939 208.486 170.693 210.402C168.483 212.288 168.475 212.287 169.943 210.307C171.272 208.515 171.265 208.433 169.874 209.515C169.002 210.194 168.213 212.571 168.073 214.943C167.936 217.264 167.552 219.602 167.22 220.14C166.858 220.726 167.146 220.789 167.941 220.297C168.911 219.698 169.09 219.939 168.607 221.195C168.194 222.273 168.341 222.669 169.004 222.259C169.623 221.876 169.929 222.325 169.743 223.343C169.553 224.384 170.129 225.19 171.181 225.356C172.218 225.519 172.665 225.194 172.274 224.562C171.849 223.873 172.382 223.693 173.771 224.056C175.154 224.418 175.692 224.238 175.271 223.556C174.85 222.874 175.388 222.695 176.771 223.056C177.958 223.367 178.706 223.26 178.434 222.82C177.82 221.827 182.665 220.528 183.972 221.335C184.497 221.66 184.926 221.448 184.926 220.866C184.926 220.284 185.713 219.814 186.676 219.822C188.064 219.834 188.14 220.019 187.044 220.713C186.19 221.254 188.037 221.484 191.877 221.315C198.77 221.011 202.993 218.807 196.682 218.807C194.326 218.807 192.097 217.998 190.378 216.519C187.837 214.334 187.149 211.49 186.65 201.113C186.619 200.456 186.33 199.946 186.009 199.981C184.233 200.172 182.867 199.711 183.271 199.057C183.526 198.645 181.753 198.307 179.331 198.307C176.908 198.307 174.926 198.593 174.926 198.944ZM117.798 201.557C116.555 203.143 116.59 203.178 118.176 201.935C119.842 200.628 120.371 199.807 119.548 199.807C119.341 199.807 118.553 200.594 117.798 201.557ZM115.609 206.995C115.29 207.792 115.053 207.555 115.005 206.39C114.962 205.336 115.198 204.746 115.53 205.078C115.862 205.41 115.898 206.273 115.609 206.995ZM68.7386 217.49C69.4596 217.779 70.3226 217.743 70.6546 217.411C70.9866 217.079 70.3966 216.843 69.3426 216.886C68.1776 216.934 67.9406 217.171 68.7386 217.49ZM111.688 217.494C110.732 217.744 108.932 217.753 107.688 217.514C106.444 217.275 107.226 217.07 109.426 217.059C111.626 217.048 112.644 217.244 111.688 217.494ZM189.798 226.557C188.555 228.143 188.59 228.178 190.176 226.935C191.842 225.628 192.371 224.807 191.548 224.807C191.341 224.807 190.553 225.594 189.798 226.557ZM76.9256 227.185C76.9256 227.392 76.1386 228.18 75.1756 228.935C73.5896 230.178 73.5546 230.143 74.7976 228.557C76.1046 226.891 76.9256 226.362 76.9256 227.185ZM383.926 230.111C383.926 230.278 382.239 231.965 380.176 233.861L376.426 237.307L379.872 233.557C383.08 230.067 383.926 229.347 383.926 230.111ZM72.1576 233.807C72.1576 235.732 72.3636 236.52 72.6146 235.557C72.8666 234.594 72.8666 233.02 72.6146 232.057C72.3636 231.094 72.1576 231.882 72.1576 233.807ZM366.926 242.807C366.025 243.389 365.901 243.782 366.617 243.792C367.272 243.8 368.086 243.357 368.426 242.807C369.193 241.565 368.847 241.565 366.926 242.807ZM141.926 252.866C141.926 253.448 141.481 253.65 140.937 253.314C140.35 252.951 140.216 253.4 140.607 254.419C141.08 255.65 140.905 255.912 139.989 255.346C139.056 254.769 138.882 255.091 139.341 256.541C139.749 257.826 139.347 259.015 138.199 259.916C136.645 261.135 136.572 261.119 137.607 259.787C138.63 258.472 138.225 258.312 134.607 258.601C128.081 259.121 127.631 259.401 129.095 262.042C129.786 263.288 130.266 264.613 130.162 264.988C130.057 265.362 131.394 266.864 133.131 268.326C136.478 271.142 136.404 271.141 146.426 268.45C150.573 267.337 151.807 266.442 153.66 263.207C155.965 259.182 156.625 256.257 155.001 257.261C153.664 258.087 148.877 255.695 149.583 254.554C149.941 253.974 149.284 253.876 147.926 254.307C146.291 254.826 145.881 254.689 146.426 253.807C146.971 252.925 146.561 252.788 144.926 253.307C143.393 253.794 142.894 253.668 143.36 252.914C143.736 252.305 143.567 251.807 142.985 251.807C142.403 251.807 141.926 252.284 141.926 252.866ZM134.926 267.832C134.926 268.358 134.026 268.017 132.926 267.075C131.826 266.133 130.926 265.222 130.926 265.05C130.926 264.877 131.826 265.218 132.926 265.807C134.026 266.396 134.926 267.307 134.926 267.832ZM65.7976 269.557C64.5546 271.143 64.5896 271.178 66.1756 269.935C67.8416 268.628 68.3706 267.807 67.5476 267.807C67.3406 267.807 66.5526 268.595 65.7976 269.557ZM335.926 271.668C335.926 272.142 337.164 272.332 338.676 272.09C340.876 271.738 341.126 271.873 339.926 272.766C338.768 273.627 339.338 273.758 342.426 273.343C346.106 272.847 346.205 272.891 343.655 273.896C341.653 274.685 340.015 274.685 337.756 273.897C336.035 273.298 330.757 272.734 326.027 272.644C317.932 272.491 317.75 272.441 322.926 271.807C331.388 270.77 335.926 270.722 335.926 271.668ZM52.7976 282.557C51.5546 284.143 51.5896 284.178 53.1756 282.935C54.1376 282.18 54.9256 281.392 54.9256 281.185C54.9256 280.362 54.1046 280.891 52.7976 282.557ZM102.426 284.365C100.562 285.948 100.214 286.535 101.508 285.914C103.367 285.023 106.738 281.799 105.798 281.812C105.594 281.815 104.076 282.963 102.426 284.365ZM89.4256 284.807C88.2766 285.301 88.0216 285.696 88.8256 285.737C89.5956 285.775 88.3236 287.185 85.9986 288.869C82.6736 291.277 81.1456 291.795 78.8476 291.29C77.1946 290.927 75.9256 291.067 75.9256 291.613C75.9256 292.143 74.8206 293.301 73.4706 294.186C71.5216 295.463 70.2326 295.593 67.2206 294.818L63.4256 293.841L67.6796 294.337C70.7746 294.697 71.8646 294.488 71.6796 293.569C71.5316 292.835 72.1986 292.439 73.2756 292.624C74.3086 292.801 74.8546 292.501 74.5116 291.946C73.6636 290.574 77.1606 289.612 80.5906 290.273C82.1496 290.573 82.8526 290.55 82.1526 290.222C80.6546 289.52 87.5616 283.943 89.9256 283.946C90.8726 283.947 90.6886 284.264 89.4256 284.807ZM96.4256 286.807C95.3256 287.28 93.5256 287.653 92.4256 287.637C90.8176 287.613 90.9156 287.451 92.9256 286.807C96.3446 285.712 98.9736 285.712 96.4256 286.807ZM213.926 287.807C211.968 289.073 210.644 289.073 211.426 287.807C211.766 287.257 212.805 286.814 213.735 286.822C215.192 286.836 215.219 286.972 213.926 287.807ZM217.426 288.807C217.086 289.357 216.047 289.8 215.117 289.792C213.66 289.778 213.633 289.642 214.926 288.807C216.884 287.541 218.208 287.541 217.426 288.807ZM221.435 289.792C221.058 290.403 221.985 290.545 223.876 290.167C225.902 289.762 226.926 289.954 226.926 290.741C226.926 291.392 226.406 291.604 225.771 291.212C225.085 290.787 224.887 290.935 225.284 291.578C225.651 292.171 225.413 293.838 224.756 295.281C223.744 297.503 223.423 297.659 222.664 296.304C222.1 295.296 222.186 294.199 222.895 293.345C223.791 292.265 223.396 291.85 220.965 291.316C217.946 290.653 217.637 288.807 220.544 288.807C221.369 288.807 221.77 289.25 221.435 289.792ZM67.9256 296.579C68.2006 296.857 66.4006 296.791 63.9256 296.432C60.7806 295.975 59.8776 296.079 60.9256 296.777C62.0856 297.55 62.1186 297.78 61.0686 297.792C60.2556 297.801 59.9506 298.429 60.3076 299.359C60.6436 300.237 60.4796 300.649 59.9286 300.309C59.1426 299.823 59.1156 297.937 59.8516 295.012C59.9636 294.564 67.3526 295.998 67.9256 296.579ZM134.331 298.057L132.426 300.307L134.676 298.402C135.914 297.354 136.926 296.342 136.926 296.152C136.926 295.352 136.121 295.943 134.331 298.057ZM151.926 296.685C151.926 297.167 152.675 298.18 153.59 298.935C155.098 300.179 155.142 300.097 154.055 298.057C152.815 295.73 151.926 295.157 151.926 296.685ZM293.497 299.011C295.067 301.048 296.571 302.496 296.838 302.229C297.105 301.961 295.82 300.295 293.983 298.525L290.642 295.307L293.497 299.011ZM222.856 302.724C222.957 306.218 222.289 304.95 221.582 300.307C221.158 297.519 221.248 296.913 221.879 298.307C222.378 299.407 222.817 301.394 222.856 302.724ZM119.485 301.339C118.417 302.146 118.025 302.807 118.612 302.807C119.2 302.807 120.241 302.132 120.926 301.307C122.483 299.431 121.993 299.441 119.485 301.339ZM223.926 306.807C223.926 307.357 223.139 307.8 222.176 307.792C220.68 307.779 220.644 307.635 221.926 306.807C223.813 305.587 223.926 305.587 223.926 306.807ZM183.145 330.057C184.526 331.295 186.279 332.449 187.041 332.623C187.803 332.797 189.08 333.58 189.88 334.363C191.151 335.607 191.05 336.371 189.084 340.418C187.847 342.965 186.582 344.796 186.273 344.487C185.246 343.461 181.186 348.26 180.503 351.307C180.107 353.072 177.96 355.956 175.288 358.312C170.917 362.167 170.795 362.425 172.045 365.169C173.256 367.828 173.65 367.985 177.881 367.509C180.376 367.227 185.059 367.423 188.287 367.943C193.737 368.82 194.611 368.675 200.521 365.91C204.021 364.272 207.101 363.281 207.365 363.708C207.629 364.136 204.855 365.713 201.2 367.214C195.261 369.653 193.792 369.871 187.363 369.269C179.28 368.511 176.263 369.111 175.606 371.604C175.284 372.829 175.125 372.675 175.042 371.057C174.978 369.819 174.487 368.919 173.95 369.057C173.413 369.194 171.869 367.957 170.518 366.307L168.063 363.307L172.203 359.057C175.693 355.474 176.023 354.807 174.309 354.807C173.19 354.807 171.184 355.982 169.85 357.418C167.559 359.885 167.041 359.997 160.426 359.454C156.576 359.137 152.509 358.61 151.388 358.282C147.981 357.284 143.93 361.261 143.904 365.63C143.892 367.652 143.014 371.22 141.953 373.557C140.163 377.499 139.749 377.802 136.225 377.737C134.136 377.698 131.526 377.28 130.426 376.807C128.956 376.175 129.811 375.929 133.656 375.877C138.716 375.809 138.951 375.679 140.906 371.847C142.017 369.669 142.926 366.334 142.926 364.436C142.926 361.905 143.659 360.361 145.676 358.646C149.503 355.391 149.119 353.237 143.919 348.79L139.426 344.948L141.079 341.627C141.989 339.801 143.01 337.46 143.349 336.424C143.899 334.745 144.743 334.597 151.142 335.055C157.822 335.533 158.548 335.818 161.622 339.173C163.503 341.225 164.926 343.846 164.926 345.257C164.926 346.709 165.751 348.178 166.916 348.802C168.011 349.387 168.798 350.36 168.666 350.962C168.534 351.564 169.051 352.284 169.815 352.562C170.659 352.868 170.933 352.628 170.513 351.948C170.074 351.237 170.385 351.046 171.368 351.423C172.219 351.75 172.724 352.325 172.49 352.703C172.257 353.08 173.598 353.21 175.471 352.992C178.445 352.644 178.957 352.161 179.519 349.165C179.988 346.663 181.008 345.306 183.294 344.145C187.248 342.135 186.839 342.599 187.887 338.944C188.743 335.957 188.576 335.686 184.356 333.213C181.919 331.785 180.12 330.303 180.357 329.919C180.594 329.535 177.782 329.315 174.107 329.43C168.119 329.617 167.893 329.559 171.926 328.873C179.414 327.599 180.534 327.717 183.145 330.057ZM144.631 337.481C144.896 338.171 144.165 340.067 143.006 341.694L140.9 344.652L145.413 348.35C147.895 350.384 149.926 352.839 149.926 353.806C149.926 356.035 153.708 357.506 161.56 358.332C167.176 358.922 167.828 358.785 169.279 356.714C170.752 354.61 170.724 354.354 168.878 353.061C167.786 352.296 167.195 351.181 167.564 350.584C167.933 349.987 167.807 349.763 167.283 350.087C165.63 351.108 163.856 349.249 163.637 346.267C163.281 341.415 158.029 337.663 150.505 336.884C145.611 336.378 144.26 336.515 144.631 337.481ZM75.8716 358.557L72.4256 362.307L76.1756 358.861C78.2386 356.965 79.9256 355.278 79.9256 355.111C79.9256 354.347 79.0796 355.067 75.8716 358.557ZM325.084 361.807C325.084 363.182 325.311 363.745 325.588 363.057C325.866 362.37 325.866 361.245 325.588 360.557C325.311 359.87 325.084 360.432 325.084 361.807ZM211.439 363.06C210.295 363.7 209.353 363.631 208.58 362.851C207.705 361.969 207.888 361.865 209.34 362.418C210.667 362.923 211.035 362.792 210.538 361.988C210.06 361.215 210.375 361.042 211.484 361.467C213.021 362.057 213.017 362.176 211.439 363.06ZM291.512 368.557C290.334 379.068 289.725 382.007 288.904 381.153C288.456 380.688 288.719 376.482 289.488 371.807C290.257 367.132 290.895 363.194 290.906 363.057C290.917 362.92 291.203 362.807 291.541 362.807C291.88 362.807 291.866 365.394 291.512 368.557ZM175.888 377.736C176.68 379.216 176.729 379.804 176.026 379.369C175.421 378.995 174.926 379.166 174.926 379.748C174.926 380.33 175.585 380.807 176.391 380.807C177.797 380.807 179.926 383.686 179.926 385.588C179.926 386.091 178.938 386.942 177.729 387.482C175.576 388.442 175.595 388.499 178.698 390.331C181.89 392.217 183.436 394.39 182.132 395.16C181.744 395.39 179.243 394.094 176.576 392.281C171.768 389.013 171.746 388.974 174.076 387.76C175.368 387.087 176.57 386.416 176.746 386.268C176.922 386.121 176.211 384.27 175.166 382.154C174.122 380.038 173.218 376.507 173.158 374.307C173.065 370.919 173.171 370.698 173.85 372.865C174.29 374.273 175.207 376.464 175.888 377.736ZM127.926 377.807C130.062 378.491 129.844 378.608 126.426 378.608C124.226 378.608 121.301 378.247 119.926 377.807C117.79 377.123 118.008 377.006 121.426 377.006C123.626 377.006 126.551 377.367 127.926 377.807ZM117.426 378.807C119.034 379.498 118.741 379.657 115.926 379.618C114.001 379.592 111.076 379.227 109.426 378.807C106.718 378.118 106.863 378.039 110.926 377.996C113.401 377.969 116.326 378.334 117.426 378.807ZM296.195 385.5C297.168 385.754 298.518 385.737 299.195 385.463C299.872 385.189 299.076 384.982 297.426 385.002C295.776 385.022 295.222 385.246 296.195 385.5ZM173.926 389.174C173.926 389.376 175.838 390.747 178.176 392.221L182.426 394.901L178.964 391.854C175.883 389.143 173.926 388.102 173.926 389.174ZM73.9256 394.307C75.2176 395.682 76.4996 396.807 76.7746 396.807C77.0496 396.807 76.2176 395.682 74.9256 394.307C73.6336 392.932 72.3516 391.807 72.0766 391.807C71.8016 391.807 72.6336 392.932 73.9256 394.307ZM266.798 398.557C265.555 400.143 265.59 400.178 267.176 398.935C268.842 397.628 269.371 396.807 268.548 396.807C268.341 396.807 267.553 397.595 266.798 398.557ZM259.005 412.39C259.053 413.555 259.29 413.792 259.609 412.995C259.898 412.273 259.862 411.41 259.53 411.078C259.198 410.746 258.962 411.336 259.005 412.39ZM254.739 414.49C255.46 414.779 256.323 414.743 256.655 414.411C256.987 414.079 256.397 413.843 255.343 413.886C254.178 413.934 253.941 414.171 254.739 414.49ZM245.739 419.49C246.46 419.779 247.323 419.743 247.655 419.411C247.987 419.079 247.397 418.843 246.343 418.886C245.178 418.934 244.941 419.171 245.739 419.49Z" fill="black"/>
</svg>
