<svg width="36" height="37" viewBox="0 0 36 37" fill="none" xmlns="http://www.w3.org/2000/svg">
  <!-- 핀 그림자 -->
  <ellipse cx="18" cy="35" rx="4" ry="2" fill="#000000" fill-opacity="0.3"/>
  
  <!-- 핀 몸체 -->
  <path d="M18 2C12.477 2 8 6.477 8 12C8 18 18 30 18 30C18 30 28 18 28 12C28 6.477 23.523 2 18 2Z" fill="#3B82F6" stroke="#1D4ED8" stroke-width="1.5"/>
  
  <!-- 핀 상단 원형 -->
  <circle cx="18" cy="12" r="6" fill="#FFFFFF" stroke="#1D4ED8" stroke-width="1.5"/>
  
  <!-- 쓰곳 로고 (지도 핀) -->
  <path d="M15 9C15 8.448 15.448 8 16 8H20C20.552 8 21 8.448 21 9V15C21 15.552 20.552 16 20 16H16C15.448 16 15 15.552 15 15V9Z" fill="#3B82F6"/>
  
  <!-- 핀 중앙 점 -->
  <circle cx="18" cy="12" r="2" fill="#FFFFFF"/>
  
  <!-- 선택 표시 링 -->
  <circle cx="18" cy="12" r="8" fill="none" stroke="#3B82F6" stroke-width="2" stroke-dasharray="4 2"/>
</svg>
