<svg width="48" height="49" viewBox="0 0 48 49" fill="none" xmlns="http://www.w3.org/2000/svg">
  <!-- 핀 그림자 -->
  <ellipse cx="24" cy="47" rx="5" ry="2" fill="#000000" fill-opacity="0.2"/>
  
  <!-- 핀 몸체 -->
  <path d="M24 3C16.268 3 10 9.268 10 16C10 24 24 40 24 40C24 40 38 24 38 16C38 9.268 31.732 3 24 3Z" fill="#FF7419" stroke="#E65A00" stroke-width="1.5"/>
  
  <!-- 핀 상단 원형 -->
  <circle cx="24" cy="16" r="8" fill="#FFFFFF" stroke="#E65A00" stroke-width="1.5"/>
  
  <!-- 쓰곳 로고 (지도 핀) -->
  <path d="M20 12C20 11.448 20.448 11 21 11H27C27.552 11 28 11.448 28 12V20C28 20.552 27.552 21 27 21H21C20.448 21 20 20.552 20 20V12Z" fill="#FF7419"/>
  
  <!-- 핀 중앙 점 -->
  <circle cx="24" cy="16" r="3" fill="#FFFFFF"/>
  
  <!-- 쓰곳 텍스트 -->
  <text x="24" y="18" text-anchor="middle" font-family="Arial, sans-serif" font-size="8" font-weight="bold" fill="#FFFFFF">쓰곳</text>
</svg>
