<?xml version="1.0" encoding="UTF-8"?>
<svg width="800" height="600" viewBox="200 150 500 350" xmlns="http://www.w3.org/2000/svg">
  <defs>
    <style>
      .region {
        cursor: pointer;
        transition: all 0.3s ease;
      }
      .region:hover {
        filter: brightness(1.1);
        stroke-width: 3;
        stroke: #ff7419;
      }
      .region-text {
        font-size: 12px;
        font-weight: bold;
        fill: #333;
        pointer-events: none;
        text-anchor: middle;
        dominant-baseline: middle;
      }
    </style>
  </defs>
  
  <!-- 배경 -->
  <rect x="200" y="150" width="500" height="350" fill="#f8f9fa"/>
  
  <!-- 경기도 경계선 (간단한 선, 0.5pt) -->
  <path d="M 200,200 L 300,180 L 400,190 L 500,200 L 600,210 L 650,220 L 680,250 L 680,300 L 650,350 L 600,400 L 500,420 L 400,430 L 300,440 L 200,450 L 150,400 L 150,300 L 200,200 Z" 
        fill="none" stroke="#333" stroke-width="0.5"/>
  
  <!-- 각 시도군 영역 (원형) -->
  <!-- 수원시 -->
  <g id="41110" class="region" data-name="수원시" data-region-id="41110">
    <circle cx="400" cy="350" r="35" fill="#FFE4E1" />
    <text x="400" y="350" class="region-text">수원시</text>
  </g>
  <!-- 성남시 -->
  <g id="41130" class="region" data-name="성남시" data-region-id="41130">
    <circle cx="430" cy="300" r="35" fill="#E6F3FF" />
    <text x="430" y="300" class="region-text">성남시</text>
  </g>
  <!-- 의정부시 -->
  <g id="41150" class="region" data-name="의정부시" data-region-id="41150">
    <circle cx="300" cy="280" r="30" fill="#F0F8FF" />
    <text x="300" y="280" class="region-text">의정부시</text>
  </g>
  <!-- 안양시 -->
  <g id="41170" class="region" data-name="안양시" data-region-id="41170">
    <circle cx="420" cy="320" r="30" fill="#F5F5DC" />
    <text x="420" y="320" class="region-text">안양시</text>
  </g>
  <!-- 부천시 -->
  <g id="41190" class="region" data-name="부천시" data-region-id="41190">
    <circle cx="390" cy="340" r="30" fill="#FFF8DC" />
    <text x="390" y="340" class="region-text">부천시</text>
  </g>
  <!-- 광명시 -->
  <g id="41210" class="region" data-name="광명시" data-region-id="41210">
    <circle cx="350" cy="380" r="25" fill="#F0FFF0" />
    <text x="350" y="380" class="region-text">광명시</text>
  </g>
  <!-- 평택시 -->
  <g id="41220" class="region" data-name="평택시" data-region-id="41220">
    <circle cx="550" cy="450" r="30" fill="#FFF0F5" />
    <text x="550" y="450" class="region-text">평택시</text>
  </g>
  <!-- 동두천시 -->
  <g id="41250" class="region" data-name="동두천시" data-region-id="41250">
    <circle cx="280" cy="260" r="25" fill="#FDF5E6" />
    <text x="280" y="260" class="region-text">동두천시</text>
  </g>
  <!-- 안산시 -->
  <g id="41270" class="region" data-name="안산시" data-region-id="41270">
    <circle cx="520" cy="400" r="30" fill="#F0F8FF" />
    <text x="520" y="400" class="region-text">안산시</text>
  </g>
  <!-- 고양시 -->
  <g id="41280" class="region" data-name="고양시" data-region-id="41280">
    <circle cx="370" cy="240" r="35" fill="#F5F5F5" />
    <text x="370" y="240" class="region-text">고양시</text>
  </g>
  <!-- 과천시 -->
  <g id="41290" class="region" data-name="과천시" data-region-id="41290">
    <circle cx="420" cy="360" r="20" fill="#F8F8FF" />
    <text x="420" y="360" class="region-text">과천시</text>
  </g>
  <!-- 구리시 -->
  <g id="41310" class="region" data-name="구리시" data-region-id="41310">
    <circle cx="340" cy="260" r="25" fill="#FFFACD" />
    <text x="340" y="260" class="region-text">구리시</text>
  </g>
  <!-- 남양주시 -->
  <g id="41360" class="region" data-name="남양주시" data-region-id="41360">
    <circle cx="320" cy="240" r="35" fill="#F0FFF0" />
    <text x="320" y="240" class="region-text">남양주시</text>
  </g>
  <!-- 오산시 -->
  <g id="41370" class="region" data-name="오산시" data-region-id="41370">
    <circle cx="440" cy="380" r="25" fill="#FFF5EE" />
    <text x="440" y="380" class="region-text">오산시</text>
  </g>
  <!-- 시흥시 -->
  <g id="41390" class="region" data-name="시흥시" data-region-id="41390">
    <circle cx="520" cy="380" r="30" fill="#F5F5DC" />
    <text x="520" y="380" class="region-text">시흥시</text>
  </g>
  <!-- 군포시 -->
  <g id="41410" class="region" data-name="군포시" data-region-id="41410">
    <circle cx="400" cy="300" r="25" fill="#F0F8FF" />
    <text x="400" y="300" class="region-text">군포시</text>
  </g>
  <!-- 의왕시 -->
  <g id="41430" class="region" data-name="의왕시" data-region-id="41430">
    <circle cx="420" cy="320" r="25" fill="#FFF8DC" />
    <text x="420" y="320" class="region-text">의왕시</text>
  </g>
  <!-- 하남시 -->
  <g id="41450" class="region" data-name="하남시" data-region-id="41450">
    <circle cx="360" cy="280" r="30" fill="#F0FFF0" />
    <text x="360" y="280" class="region-text">하남시</text>
  </g>
  <!-- 용인시 -->
  <g id="41460" class="region" data-name="용인시" data-region-id="41460">
    <circle cx="540" cy="320" r="35" fill="#F5F5DC" />
    <text x="540" y="320" class="region-text">용인시</text>
  </g>
  <!-- 파주시 -->
  <g id="41480" class="region" data-name="파주시" data-region-id="41480">
    <circle cx="250" cy="220" r="30" fill="#F0F8FF" />
    <text x="250" y="220" class="region-text">파주시</text>
  </g>
  <!-- 이천시 -->
  <g id="41500" class="region" data-name="이천시" data-region-id="41500">
    <circle cx="600" cy="280" r="30" fill="#FFF8DC" />
    <text x="600" y="280" class="region-text">이천시</text>
  </g>
  <!-- 안성시 -->
  <g id="41550" class="region" data-name="안성시" data-region-id="41550">
    <circle cx="580" cy="350" r="30" fill="#F0FFF0" />
    <text x="580" y="350" class="region-text">안성시</text>
  </g>
  <!-- 김포시 -->
  <g id="41570" class="region" data-name="김포시" data-region-id="41570">
    <circle cx="280" cy="320" r="30" fill="#FFF5EE" />
    <text x="280" y="320" class="region-text">김포시</text>
  </g>
  <!-- 화성시 -->
  <g id="41590" class="region" data-name="화성시" data-region-id="41590">
    <circle cx="500" cy="420" r="35" fill="#F8F8FF" />
    <text x="500" y="420" class="region-text">화성시</text>
  </g>
  <!-- 광주시 -->
  <g id="41610" class="region" data-name="광주시" data-region-id="41610">
    <circle cx="480" cy="300" r="30" fill="#F0F8FF" />
    <text x="480" y="300" class="region-text">광주시</text>
  </g>
  <!-- 여주시 -->
  <g id="41630" class="region" data-name="여주시" data-region-id="41630">
    <circle cx="620" cy="320" r="30" fill="#FFF8DC" />
    <text x="620" y="320" class="region-text">여주시</text>
  </g>
  <!-- 양평군 -->
  <g id="41830" class="region" data-name="양평군" data-region-id="41830">
    <circle cx="650" cy="280" r="30" fill="#F0FFF0" />
    <text x="650" y="280" class="region-text">양평군</text>
  </g>
  <!-- 고양군 -->
  <g id="41800" class="region" data-name="고양군" data-region-id="41800">
    <circle cx="300" cy="400" r="30" fill="#FFF5EE" />
    <text x="300" y="400" class="region-text">고양군</text>
  </g>
  <!-- 연천군 -->
  <g id="41820" class="region" data-name="연천군" data-region-id="41820">
    <circle cx="260" cy="240" r="30" fill="#F8F8FF" />
    <text x="260" y="240" class="region-text">연천군</text>
  </g>
  <!-- 포천군 -->
  <g id="41810" class="region" data-name="포천군" data-region-id="41810">
    <circle cx="280" cy="220" r="30" fill="#F0F8FF" />
    <text x="280" y="220" class="region-text">포천군</text>
  </g>
  <!-- 가평군 -->
  <g id="41840" class="region" data-name="가평군" data-region-id="41840">
    <circle cx="320" cy="220" r="25" fill="#FFFACD" />
    <text x="320" y="220" class="region-text">가평군</text>
  </g>
</svg>