<?xml version="1.0"?>
<svg xmlns="http://www.w3.org/2000/svg" version="1.2" baseProfile="tiny" width="100%" height="900" viewBox="0 0 800 600" stroke-linecap="round" stroke-linejoin="round">
<g id="gyeonggi-regions">
<path id="41111" d="M 20,23.63636363636317 158.18181818181105,23.63636363636317 158.18181818181105,161.81818181818403 20,161.81818181818403 20,23.63636363636317 Z" data-name="수원시 장안구" />
<path id="41113" d="M 227.2727272727264,23.63636363636317 365.4545454545374,23.63636363636317 365.4545454545374,161.81818181818403 227.2727272727264,161.81818181818403 227.2727272727264,23.63636363636317 Z" data-name="수원시 권선구" />
<path id="41115" d="M 434.5454545454626,23.63636363636317 572.7272727272737,23.63636363636317 572.7272727272737,161.81818181818403 434.5454545454626,161.81818181818403 434.5454545454626,23.63636363636317 Z" data-name="수원시 팔달구" />
<path id="41117" d="M 641.818181818189,23.63636363636317 780,23.63636363636317 780,161.81818181818403 641.818181818189,161.81818181818403 641.818181818189,23.63636363636317 Z" data-name="수원시 영통구" />
<path id="41131" d="M 20,230.90909090908957 158.18181818181105,230.90909090908957 158.18181818181105,369.09090909091043 20,369.09090909091043 20,230.90909090908957 Z" data-name="성남시 수정구" />
<path id="41133" d="M 227.2727272727264,230.90909090908957 365.4545454545374,230.90909090908957 365.4545454545374,369.09090909091043 227.2727272727264,369.09090909091043 227.2727272727264,230.90909090908957 Z" data-name="성남시 중원구" />
<path id="41135" d="M 434.5454545454626,230.90909090908957 572.7272727272737,230.90909090908957 572.7272727272737,369.09090909091043 434.5454545454626,369.09090909091043 434.5454545454626,230.90909090908957 Z" data-name="성남시 분당구" />
<path id="41150" d="M 641.818181818189,230.90909090908957 780,230.90909090908957 780,369.09090909091043 641.818181818189,369.09090909091043 641.818181818189,230.90909090908957 Z" data-name="의정부시" />
<path id="41170" d="M 20,438.18181818181597 158.18181818181105,438.18181818181597 158.18181818181105,576.3636363636368 20,576.3636363636368 20,438.18181818181597 Z" data-name="안양시 만안구" />
<path id="41171" d="M 227.2727272727264,438.18181818181597 365.4545454545374,438.18181818181597 365.4545454545374,576.3636363636368 227.2727272727264,576.3636363636368 227.2727272727264,438.18181818181597 Z" data-name="안양시 동안구" />
<path id="41190" d="M 434.5454545454626,438.18181818181597 572.7272727272737,438.18181818181597 572.7272727272737,576.3636363636368 434.5454545454626,576.3636363636368 434.5454545454626,438.18181818181597 Z" data-name="부천시" />
<path id="41210" d="M 641.818181818189,438.18181818181597 780,438.18181818181597 780,576.3636363636368 641.818181818189,576.3636363636368 641.818181818189,438.18181818181597 Z" data-name="광명시" />
</g>
</svg>